<?xml version="1.0" encoding="UTF-8"?>
<!DOCTYPE svg PUBLIC "-//W3C//DTD SVG 1.1//EN" "http://www.w3.org/Graphics/SVG/1.1/DTD/svg11.dtd">
<svg xmlns="http://www.w3.org/2000/svg"  width="1200px" height="1200px" >
<g><path fill="#d8171c" d="M 567.5,-0.5 C 588.833,-0.5 610.167,-0.5 631.5,-0.5C 796.706,11.0266 935.206,77.3599 1047,198.5C 1139.22,303.588 1190.06,426.255 1199.5,566.5C 1199.5,588.5 1199.5,610.5 1199.5,632.5C 1188.36,788.919 1127.36,922.085 1016.5,1032C 908.541,1133.62 780.208,1189.46 631.5,1199.5C 610.167,1199.5 588.833,1199.5 567.5,1199.5C 402.286,1187.97 263.786,1121.64 152,1000.5C 59.776,895.412 8.94262,772.745 -0.5,632.5C -0.5,610.5 -0.5,588.5 -0.5,566.5C 10.6551,410.052 71.6551,276.885 182.5,167C 290.467,65.3723 418.801,9.53892 567.5,-0.5 Z"/></g>
<g><path fill="#ca2627" d="M 849.5,351.5 C 848.833,351.5 848.167,351.5 847.5,351.5C 846.365,349.787 844.698,349.12 842.5,349.5C 842.167,349.5 841.833,349.5 841.5,349.5C 839.022,348.836 836.355,348.503 833.5,348.5C 829.531,348.294 825.865,348.961 822.5,350.5C 820.236,351.219 817.903,351.552 815.5,351.5C 811.84,351.159 808.507,351.825 805.5,353.5C 804.5,353.5 803.5,353.5 802.5,353.5C 794.848,354.609 787.181,355.609 779.5,356.5C 781.389,355.678 783.389,354.845 785.5,354C 799.12,352.605 812.454,350.272 825.5,347C 833.045,345.874 840.379,346.54 847.5,349C 848.381,349.708 849.047,350.542 849.5,351.5 Z"/></g>
<g><path fill="#e27478" d="M 841.5,349.5 C 835.131,349.347 828.797,349.68 822.5,350.5C 825.865,348.961 829.531,348.294 833.5,348.5C 836.355,348.503 839.022,348.836 841.5,349.5 Z"/></g>
<g><path fill="#dd6163" d="M 842.5,350.5 C 842.5,350.167 842.5,349.833 842.5,349.5C 844.698,349.12 846.365,349.787 847.5,351.5C 845.784,351.371 844.117,351.038 842.5,350.5 Z"/></g>
<g><path fill="#fbbfc1" d="M 841.5,349.5 C 841.833,349.5 842.167,349.5 842.5,349.5C 842.5,349.833 842.5,350.167 842.5,350.5C 833.435,350.457 824.435,351.124 815.5,352.5C 815.5,352.167 815.5,351.833 815.5,351.5C 817.903,351.552 820.236,351.219 822.5,350.5C 828.797,349.68 835.131,349.347 841.5,349.5 Z"/></g>
<g><path fill="#fefefe" d="M 842.5,350.5 C 844.117,351.038 845.784,351.371 847.5,351.5C 847.5,352.833 848.167,353.5 849.5,353.5C 850.833,355.167 852.167,356.833 853.5,358.5C 854.11,360.434 855.11,362.101 856.5,363.5C 856.518,371.851 856.185,380.184 855.5,388.5C 855.5,392.167 855.5,395.833 855.5,399.5C 854.527,401.948 854.194,404.615 854.5,407.5C 853.664,412.156 852.664,416.822 851.5,421.5C 850.833,421.5 850.5,421.833 850.5,422.5C 848.431,424.573 846.098,426.24 843.5,427.5C 843.5,428.5 843.5,429.5 843.5,430.5C 840.626,431.844 837.626,433.01 834.5,434C 826.484,434.87 818.484,435.87 810.5,437C 809.584,437.278 808.918,437.778 808.5,438.5C 800.941,440.058 793.274,441.225 785.5,442C 782.626,442.942 779.96,444.109 777.5,445.5C 776.833,445.5 776.167,445.5 775.5,445.5C 772.615,445.194 769.948,445.527 767.5,446.5C 760.409,446.586 753.409,447.419 746.5,449C 744.277,449.566 742.277,450.4 740.5,451.5C 739.167,491.328 738.5,531.494 738.5,572C 738.667,612.167 738.833,652.333 739,692.5C 739.383,693.056 739.883,693.389 740.5,693.5C 740.5,696.167 740.5,698.833 740.5,701.5C 740.044,706.596 741.044,711.262 743.5,715.5C 744.338,715.842 744.672,716.508 744.5,717.5C 744.42,722.621 746.42,726.621 750.5,729.5C 751.338,729.842 751.672,730.508 751.5,731.5C 752.508,733.544 753.508,735.544 754.5,737.5C 754.738,739.404 755.738,740.738 757.5,741.5C 758.279,744.545 759.613,747.211 761.5,749.5C 761.5,750.167 761.5,750.833 761.5,751.5C 761.427,753.027 762.094,754.027 763.5,754.5C 763.5,754.833 763.5,755.167 763.5,755.5C 763.609,758.899 764.942,761.566 767.5,763.5C 768.674,764.514 769.34,765.847 769.5,767.5C 771.837,772.2 773.67,777.2 775,782.5C 777.5,786.166 780,789.832 782.5,793.5C 785.096,797.03 787.429,800.697 789.5,804.5C 789.5,805.167 789.5,805.833 789.5,806.5C 790.468,809.1 791.801,811.434 793.5,813.5C 794.338,813.842 794.672,814.508 794.5,815.5C 794.755,817.967 795.755,819.967 797.5,821.5C 797.564,825.219 799.231,827.886 802.5,829.5C 803.343,835.353 805.51,840.687 809,845.5C 809.607,849.537 809.44,853.537 808.5,857.5C 808.167,858.833 807.833,860.167 807.5,861.5C 804.485,865.514 800.485,867.847 795.5,868.5C 775.831,868.667 756.164,868.5 736.5,868C 734.372,867.345 732.372,866.511 730.5,865.5C 729.078,864.075 727.411,863.075 725.5,862.5C 725.5,862.167 725.5,861.833 725.5,861.5C 724.702,859.034 723.369,857.034 721.5,855.5C 721.663,853.143 721.497,850.81 721,848.5C 718.446,844.513 715.613,840.846 712.5,837.5C 712.5,836.833 712.5,836.167 712.5,835.5C 712.008,833.181 711.008,831.181 709.5,829.5C 707.896,828.713 707.229,827.38 707.5,825.5C 705.569,821.539 703.569,817.539 701.5,813.5C 701.043,812.702 700.376,812.369 699.5,812.5C 698.404,809.968 697.071,807.635 695.5,805.5C 695.446,803.368 694.446,802.035 692.5,801.5C 692.5,800.833 692.5,800.167 692.5,799.5C 691.212,792.243 687.878,786.243 682.5,781.5C 682.672,780.508 682.338,779.842 681.5,779.5C 681.573,777.973 680.906,776.973 679.5,776.5C 676.967,769.101 673.633,762.101 669.5,755.5C 669.653,752.465 668.32,750.465 665.5,749.5C 665.573,747.973 664.906,746.973 663.5,746.5C 663.5,745.833 663.5,745.167 663.5,744.5C 663.573,742.973 662.906,741.973 661.5,741.5C 661.5,740.833 661.5,740.167 661.5,739.5C 661.073,736.99 660.407,734.657 659.5,732.5C 658.965,728.501 658.299,724.501 657.5,720.5C 656.833,636.001 656.167,551.668 655.5,467.5C 652.663,465.598 649.329,464.931 645.5,465.5C 634.034,467.503 622.701,469.503 611.5,471.5C 610.005,471.989 608.671,472.655 607.5,473.5C 599.535,474.468 591.535,475.468 583.5,476.5C 580.223,476.784 577.057,476.451 574,475.5C 572.968,477.027 571.801,478.36 570.5,479.5C 566.575,479.43 562.909,480.097 559.5,481.5C 555.818,481.335 552.152,481.501 548.5,482C 547.584,482.278 546.918,482.778 546.5,483.5C 544.283,484.369 541.95,484.702 539.5,484.5C 534.87,485.229 530.203,485.563 525.5,485.5C 521.807,485.186 519.473,486.852 518.5,490.5C 519.664,600.46 519.831,710.46 519,820.5C 518.338,822.813 517.838,825.146 517.5,827.5C 517.5,828.167 517.5,828.833 517.5,829.5C 515.5,831.833 513.5,834.167 511.5,836.5C 507.758,837.218 504.758,839.218 502.5,842.5C 500.111,843.18 497.778,844.014 495.5,845C 496.252,845.671 496.586,846.504 496.5,847.5C 493.368,849.046 490.702,851.046 488.5,853.5C 486.566,854.11 484.899,855.11 483.5,856.5C 481.847,856.66 480.514,857.326 479.5,858.5C 476.45,857.923 474.45,859.09 473.5,862C 472.207,862.49 470.873,862.657 469.5,862.5C 469.5,863.5 469.5,864.5 469.5,865.5C 466.99,865.054 464.99,865.72 463.5,867.5C 463.5,867.833 463.5,868.167 463.5,868.5C 459.629,868.815 455.962,868.482 452.5,867.5C 450.434,865.801 448.1,864.468 445.5,863.5C 444.167,862.5 442.833,861.5 441.5,860.5C 441.443,859.391 441.11,858.391 440.5,857.5C 439.863,854.544 439.363,851.544 439,848.5C 438.833,733.333 438.333,618.333 437.5,503.5C 436.036,502.84 434.369,502.507 432.5,502.5C 429.514,502.382 426.848,503.048 424.5,504.5C 421.43,504.368 418.43,504.701 415.5,505.5C 409.88,505.694 404.547,506.694 399.5,508.5C 395.183,508.083 391.183,508.75 387.5,510.5C 381.593,510.863 375.927,511.863 370.5,513.5C 368.167,513.5 365.833,513.5 363.5,513.5C 355.34,512.807 347.673,514.14 340.5,517.5C 340.167,517.5 339.833,517.5 339.5,517.5C 333.095,517.687 327.095,516.354 321.5,513.5C 320.833,513.5 320.167,513.5 319.5,513.5C 319.262,511.596 318.262,510.262 316.5,509.5C 316.443,508.391 316.11,507.391 315.5,506.5C 315.5,505.833 315.5,505.167 315.5,504.5C 314.276,496.172 314.276,487.839 315.5,479.5C 315.298,477.05 315.631,474.717 316.5,472.5C 317.495,463.97 318.495,455.303 319.5,446.5C 320.906,446.027 321.573,445.027 321.5,443.5C 323.833,440.5 326.5,437.833 329.5,435.5C 330.5,435.167 331.167,434.5 331.5,433.5C 335.79,433.802 339.79,433.136 343.5,431.5C 346.187,431.664 348.854,431.497 351.5,431C 352.416,430.722 353.082,430.222 353.5,429.5C 355.735,429.795 357.735,429.461 359.5,428.5C 360.833,428.5 362.167,428.5 363.5,428.5C 367.817,428.917 371.817,428.25 375.5,426.5C 379.846,426.666 384.179,426.499 388.5,426C 389.737,425.768 390.737,425.268 391.5,424.5C 397.177,424.622 402.51,423.622 407.5,421.5C 413.004,420.731 418.338,419.731 423.5,418.5C 428.215,418.494 432.882,417.994 437.5,417C 438.056,416.617 438.389,416.117 438.5,415.5C 438.833,415.5 439.167,415.5 439.5,415.5C 442.167,415.5 444.833,415.5 447.5,415.5C 451.819,414.965 456.152,414.465 460.5,414C 461.056,413.617 461.389,413.117 461.5,412.5C 474.491,411.797 487.157,409.797 499.5,406.5C 500.919,405.549 502.585,405.216 504.5,405.5C 507.152,405.59 509.485,404.924 511.5,403.5C 517.184,403.739 522.518,402.739 527.5,400.5C 530.385,400.806 533.052,400.473 535.5,399.5C 541.866,399.938 547.866,398.938 553.5,396.5C 554.167,396.5 554.833,396.5 555.5,396.5C 558.807,395.949 562.14,395.616 565.5,395.5C 575.945,394.989 586.279,393.823 596.5,392C 608.174,387.728 620.007,386.228 632,387.5C 632.308,386.692 632.808,386.025 633.5,385.5C 635.657,384.95 637.657,384.283 639.5,383.5C 649.749,382.275 659.749,380.275 669.5,377.5C 672.33,377.037 674.997,376.371 677.5,375.5C 678.833,375.5 680.167,375.5 681.5,375.5C 684.551,375.364 687.551,375.698 690.5,376.5C 700.853,373.19 711.353,371.856 722,372.5C 725.104,371.197 727.937,369.53 730.5,367.5C 732.306,366.976 733.972,366.309 735.5,365.5C 738.385,365.806 741.052,365.473 743.5,364.5C 754.388,363.476 765.054,361.809 775.5,359.5C 775.833,359.5 776.167,359.5 776.5,359.5C 789.859,358.331 802.859,355.998 815.5,352.5C 824.435,351.124 833.435,350.457 842.5,350.5 Z"/></g>
<g><path fill="#dc696c" d="M 815.5,351.5 C 815.5,351.833 815.5,352.167 815.5,352.5C 812.14,352.616 808.807,352.949 805.5,353.5C 808.507,351.825 811.84,351.159 815.5,351.5 Z"/></g>
<g><path fill="#e18386" d="M 847.5,351.5 C 848.167,351.5 848.833,351.5 849.5,351.5C 849.5,352.167 849.5,352.833 849.5,353.5C 848.167,353.5 847.5,352.833 847.5,351.5 Z"/></g>
<g><path fill="#e68386" d="M 849.5,353.5 C 852.5,354.5 854.5,356.5 855.5,359.5C 854.833,359.167 854.167,358.833 853.5,358.5C 852.167,356.833 850.833,355.167 849.5,353.5 Z"/></g>
<g><path fill="#e3787c" d="M 802.5,353.5 C 794.521,356.218 786.188,357.551 777.5,357.5C 777.5,357.167 777.5,356.833 777.5,356.5C 778.167,356.5 778.833,356.5 779.5,356.5C 787.181,355.609 794.848,354.609 802.5,353.5 Z"/></g>
<g><path fill="#fcc8c8" d="M 815.5,352.5 C 802.859,355.998 789.859,358.331 776.5,359.5C 776.833,358.833 777.167,358.167 777.5,357.5C 786.188,357.551 794.521,356.218 802.5,353.5C 803.5,353.5 804.5,353.5 805.5,353.5C 808.807,352.949 812.14,352.616 815.5,352.5 Z"/></g>
<g><path fill="#e3797e" d="M 777.5,357.5 C 777.167,358.167 776.833,358.833 776.5,359.5C 776.167,359.5 775.833,359.5 775.5,359.5C 772.833,359.5 770.167,359.5 767.5,359.5C 770.627,358.419 773.96,357.753 777.5,357.5 Z"/></g>
<g><path fill="#f5a9aa" d="M 767.5,359.5 C 770.167,359.5 772.833,359.5 775.5,359.5C 765.054,361.809 754.388,363.476 743.5,364.5C 743.5,364.167 743.5,363.833 743.5,363.5C 751.456,361.952 759.456,360.618 767.5,359.5 Z"/></g>
<g><path fill="#fcc1bc" d="M 853.5,358.5 C 854.167,358.833 854.833,359.167 855.5,359.5C 856.338,359.842 856.672,360.508 856.5,361.5C 856.5,362.167 856.5,362.833 856.5,363.5C 855.11,362.101 854.11,360.434 853.5,358.5 Z"/></g>
<g><path fill="#cb292d" d="M 777.5,356.5 C 777.5,356.833 777.5,357.167 777.5,357.5C 773.96,357.753 770.627,358.419 767.5,359.5C 759.456,360.618 751.456,361.952 743.5,363.5C 740.572,363.565 737.905,364.232 735.5,365.5C 731.785,365.423 728.119,365.756 724.5,366.5C 724.881,365.069 725.881,364.236 727.5,364C 739.499,362.24 751.499,360.24 763.5,358C 763.167,357.667 762.833,357.333 762.5,357C 767.489,356.501 772.489,356.334 777.5,356.5 Z"/></g>
<g><path fill="#f29a9d" d="M 743.5,363.5 C 743.5,363.833 743.5,364.167 743.5,364.5C 741.052,365.473 738.385,365.806 735.5,365.5C 737.905,364.232 740.572,363.565 743.5,363.5 Z"/></g>
<g><path fill="#f4a4a5" d="M 735.5,365.5 C 733.972,366.309 732.306,366.976 730.5,367.5C 726.548,368.272 722.548,368.605 718.5,368.5C 720.167,367.833 721.833,367.167 723.5,366.5C 723.833,366.5 724.167,366.5 724.5,366.5C 728.119,365.756 731.785,365.423 735.5,365.5 Z"/></g>
<g><path fill="#d64648" d="M 723.5,366.5 C 721.833,367.167 720.167,367.833 718.5,368.5C 718.167,368.5 717.833,368.5 717.5,368.5C 714.833,368.833 712.167,369.167 709.5,369.5C 709.577,368.25 710.244,367.417 711.5,367C 715.486,366.501 719.486,366.334 723.5,366.5 Z"/></g>
<g><path fill="#ffe7e9" d="M 856.5,363.5 C 857.167,363.5 857.5,363.833 857.5,364.5C 857.666,370.842 857.5,377.175 857,383.5C 856.802,385.382 856.302,387.048 855.5,388.5C 856.185,380.184 856.518,371.851 856.5,363.5 Z"/></g>
<g><path fill="#c72b2f" d="M 699.5,369.5 C 698.833,370.167 698.167,370.833 697.5,371.5C 694.14,371.616 690.807,371.949 687.5,372.5C 687.62,371.414 688.287,370.747 689.5,370.5C 692.783,369.673 696.116,369.34 699.5,369.5 Z"/></g>
<g><path fill="#fab6b6" d="M 717.5,368.5 C 717.082,369.222 716.416,369.722 715.5,370C 712.854,370.497 710.187,370.664 707.5,370.5C 707.5,370.167 707.5,369.833 707.5,369.5C 708.167,369.5 708.833,369.5 709.5,369.5C 712.167,369.167 714.833,368.833 717.5,368.5 Z"/></g>
<g><path fill="#de7171" d="M 856.5,361.5 C 858.975,362.687 859.975,364.687 859.5,367.5C 859.806,370.385 859.473,373.052 858.5,375.5C 858.815,371.629 858.482,367.962 857.5,364.5C 857.5,363.833 857.167,363.5 856.5,363.5C 856.5,362.833 856.5,362.167 856.5,361.5 Z"/></g>
<g><path fill="#db686a" d="M 699.5,369.5 C 702.167,369.5 704.833,369.5 707.5,369.5C 707.5,369.833 707.5,370.167 707.5,370.5C 706.833,370.5 706.167,370.5 705.5,370.5C 702.833,370.833 700.167,371.167 697.5,371.5C 698.167,370.833 698.833,370.167 699.5,369.5 Z"/></g>
<g><path fill="#ffefee" d="M 730.5,367.5 C 727.937,369.53 725.104,371.197 722,372.5C 711.353,371.856 700.853,373.19 690.5,376.5C 687.551,375.698 684.551,375.364 681.5,375.5C 688.643,374.033 695.977,372.866 703.5,372C 704.416,371.722 705.082,371.222 705.5,370.5C 706.167,370.5 706.833,370.5 707.5,370.5C 710.187,370.664 712.854,370.497 715.5,370C 716.416,369.722 717.082,369.222 717.5,368.5C 717.833,368.5 718.167,368.5 718.5,368.5C 722.548,368.605 726.548,368.272 730.5,367.5 Z"/></g>
<g><path fill="#f2a5a7" d="M 705.5,370.5 C 705.082,371.222 704.416,371.722 703.5,372C 695.977,372.866 688.643,374.033 681.5,375.5C 680.167,375.5 678.833,375.5 677.5,375.5C 678.5,374.833 679.5,374.167 680.5,373.5C 683.059,373.802 685.393,373.468 687.5,372.5C 690.807,371.949 694.14,371.616 697.5,371.5C 700.167,371.167 702.833,370.833 705.5,370.5 Z"/></g>
<g><path fill="#de6166" d="M 680.5,373.5 C 679.5,374.167 678.5,374.833 677.5,375.5C 676.167,375.5 674.833,375.5 673.5,375.5C 675.515,374.076 677.848,373.41 680.5,373.5 Z"/></g>
<g><path fill="#f2a1a3" d="M 673.5,375.5 C 674.833,375.5 676.167,375.5 677.5,375.5C 674.997,376.371 672.33,377.037 669.5,377.5C 667.5,377.5 665.5,377.5 663.5,377.5C 666.627,376.419 669.96,375.753 673.5,375.5 Z"/></g>
<g><path fill="#cb3336" d="M 687.5,372.5 C 685.393,373.468 683.059,373.802 680.5,373.5C 677.848,373.41 675.515,374.076 673.5,375.5C 669.96,375.753 666.627,376.419 663.5,377.5C 662.833,377.5 662.167,377.5 661.5,377.5C 655.771,377.746 650.104,378.412 644.5,379.5C 646.975,378.869 649.309,377.869 651.5,376.5C 663.305,374.341 675.305,373.007 687.5,372.5 Z"/></g>
<g><path fill="#fed4d4" d="M 661.5,377.5 C 662.167,377.5 662.833,377.5 663.5,377.5C 665.5,377.5 667.5,377.5 669.5,377.5C 659.749,380.275 649.749,382.275 639.5,383.5C 636.833,383.5 634.167,383.5 631.5,383.5C 641.517,381.663 651.517,379.663 661.5,377.5 Z"/></g>
<g><path fill="#ce191b" d="M 651.5,376.5 C 649.309,377.869 646.975,378.869 644.5,379.5C 639.833,380.167 635.167,380.833 630.5,381.5C 627.848,381.41 625.515,382.076 623.5,383.5C 620.946,384.388 618.279,384.721 615.5,384.5C 612.193,385.051 608.86,385.384 605.5,385.5C 600.87,386.229 596.203,386.563 591.5,386.5C 606.313,381.612 621.646,379.112 637.5,379C 636.027,378.29 635.36,377.124 635.5,375.5C 637.773,376.735 639.606,376.402 641,374.5C 644.149,376.362 647.649,377.029 651.5,376.5 Z"/></g>
<g><path fill="#d3484d" d="M 630.5,381.5 C 629.5,382.167 628.5,382.833 627.5,383.5C 626.167,383.5 624.833,383.5 623.5,383.5C 625.515,382.076 627.848,381.41 630.5,381.5 Z"/></g>
<g><path fill="#e57b7d" d="M 661.5,377.5 C 651.517,379.663 641.517,381.663 631.5,383.5C 630.167,383.5 628.833,383.5 627.5,383.5C 628.5,382.833 629.5,382.167 630.5,381.5C 635.167,380.833 639.833,380.167 644.5,379.5C 650.104,378.412 655.771,377.746 661.5,377.5 Z"/></g>
<g><path fill="#d04547" d="M 859.5,367.5 C 860.477,370.287 860.81,373.287 860.5,376.5C 859.992,381.6 858.992,386.6 857.5,391.5C 858.275,386.203 858.608,380.87 858.5,375.5C 859.473,373.052 859.806,370.385 859.5,367.5 Z"/></g>
<g><path fill="#f4a6aa" d="M 623.5,383.5 C 624.833,383.5 626.167,383.5 627.5,383.5C 628.833,383.5 630.167,383.5 631.5,383.5C 625.665,384.695 619.665,385.695 613.5,386.5C 614.167,385.833 614.833,385.167 615.5,384.5C 618.279,384.721 620.946,384.388 623.5,383.5 Z"/></g>
<g><path fill="#ca3034" d="M 605.5,385.5 C 602.264,386.865 598.931,387.865 595.5,388.5C 594.167,388.5 592.833,388.5 591.5,388.5C 591.5,387.833 591.5,387.167 591.5,386.5C 596.203,386.563 600.87,386.229 605.5,385.5 Z"/></g>
<g><path fill="#e17779" d="M 615.5,384.5 C 614.833,385.167 614.167,385.833 613.5,386.5C 612.5,386.5 611.5,386.5 610.5,386.5C 607.848,386.41 605.515,387.076 603.5,388.5C 602.167,388.5 600.833,388.5 599.5,388.5C 598.167,388.5 596.833,388.5 595.5,388.5C 598.931,387.865 602.264,386.865 605.5,385.5C 608.86,385.384 612.193,385.051 615.5,384.5 Z"/></g>
<g><path fill="#f9b9ba" d="M 610.5,386.5 C 608.485,387.924 606.152,388.59 603.5,388.5C 605.515,387.076 607.848,386.41 610.5,386.5 Z"/></g>
<g><path fill="#d2494b" d="M 591.5,388.5 C 589.167,389.167 586.833,389.833 584.5,390.5C 583.833,390.5 583.5,390.833 583.5,391.5C 582.167,391.5 580.833,391.5 579.5,391.5C 579.5,391.167 579.5,390.833 579.5,390.5C 583.295,388.857 587.295,388.191 591.5,388.5 Z"/></g>
<g><path fill="#e98d8d" d="M 591.5,388.5 C 592.833,388.5 594.167,388.5 595.5,388.5C 592.155,390.217 588.489,390.884 584.5,390.5C 586.833,389.833 589.167,389.167 591.5,388.5 Z"/></g>
<g><path fill="#d03e3e" d="M 579.5,390.5 C 579.5,390.833 579.5,391.167 579.5,391.5C 575.922,391.549 572.589,392.215 569.5,393.5C 568.167,393.5 566.833,393.5 565.5,393.5C 565.5,393.167 565.5,392.833 565.5,392.5C 565.918,391.778 566.584,391.278 567.5,391C 571.486,390.501 575.486,390.334 579.5,390.5 Z"/></g>
<g><path fill="#fececb" d="M 595.5,388.5 C 596.833,388.5 598.167,388.5 599.5,388.5C 594.59,391.068 589.257,392.068 583.5,391.5C 583.5,390.833 583.833,390.5 584.5,390.5C 588.489,390.884 592.155,390.217 595.5,388.5 Z"/></g>
<g><path fill="#f39ea0" d="M 857.5,364.5 C 858.482,367.962 858.815,371.629 858.5,375.5C 858.608,380.87 858.275,386.203 857.5,391.5C 856.527,393.948 856.194,396.615 856.5,399.5C 856.167,399.5 855.833,399.5 855.5,399.5C 855.5,395.833 855.5,392.167 855.5,388.5C 856.302,387.048 856.802,385.382 857,383.5C 857.5,377.175 857.666,370.842 857.5,364.5 Z"/></g>
<g><path fill="#fff0ee" d="M 631.5,383.5 C 634.167,383.5 636.833,383.5 639.5,383.5C 637.657,384.283 635.657,384.95 633.5,385.5C 632.808,386.025 632.308,386.692 632,387.5C 620.007,386.228 608.174,387.728 596.5,392C 586.279,393.823 575.945,394.989 565.5,395.5C 566.833,394.833 568.167,394.167 569.5,393.5C 573.514,393.666 577.514,393.499 581.5,393C 582.416,392.722 583.082,392.222 583.5,391.5C 589.257,392.068 594.59,391.068 599.5,388.5C 600.833,388.5 602.167,388.5 603.5,388.5C 606.152,388.59 608.485,387.924 610.5,386.5C 611.5,386.5 612.5,386.5 613.5,386.5C 619.665,385.695 625.665,384.695 631.5,383.5 Z"/></g>
<g><path fill="#f9bfbd" d="M 579.5,391.5 C 580.833,391.5 582.167,391.5 583.5,391.5C 583.082,392.222 582.416,392.722 581.5,393C 577.514,393.499 573.514,393.666 569.5,393.5C 572.589,392.215 575.922,391.549 579.5,391.5 Z"/></g>
<g><path fill="#cd1b1e" d="M 565.5,392.5 C 565.5,392.833 565.5,393.167 565.5,393.5C 562.615,393.194 559.948,393.527 557.5,394.5C 555.435,394.517 553.435,394.85 551.5,395.5C 548.813,395.336 546.146,395.503 543.5,396C 542.584,396.278 541.918,396.778 541.5,397.5C 536.819,397.669 532.152,398.002 527.5,398.5C 528.171,397.153 528.171,395.986 527.5,395C 532.916,394.841 538.25,394.174 543.5,393C 544.833,392.333 544.833,391.667 543.5,391C 544.5,390.333 545.5,390.333 546.5,391C 546.167,391.333 545.833,391.667 545.5,392C 547.8,392.658 550.133,393.158 552.5,393.5C 556.798,392.703 561.132,392.37 565.5,392.5 Z"/></g>
<g><path fill="#e98085" d="M 557.5,394.5 C 556.833,395.167 556.167,395.833 555.5,396.5C 554.833,396.5 554.167,396.5 553.5,396.5C 552.833,396.5 552.167,396.5 551.5,396.5C 551.5,396.167 551.5,395.833 551.5,395.5C 553.435,394.85 555.435,394.517 557.5,394.5 Z"/></g>
<g><path fill="#f5adac" d="M 565.5,393.5 C 566.833,393.5 568.167,393.5 569.5,393.5C 568.167,394.167 566.833,394.833 565.5,395.5C 562.14,395.616 558.807,395.949 555.5,396.5C 556.167,395.833 556.833,395.167 557.5,394.5C 559.948,393.527 562.615,393.194 565.5,393.5 Z"/></g>
<g><path fill="#db5a62" d="M 551.5,395.5 C 551.5,395.833 551.5,396.167 551.5,396.5C 548.14,396.616 544.807,396.949 541.5,397.5C 541.918,396.778 542.584,396.278 543.5,396C 546.146,395.503 548.813,395.336 551.5,395.5 Z"/></g>
<g><path fill="#e67b7f" d="M 541.5,397.5 C 539.5,398.167 537.5,398.833 535.5,399.5C 533.052,400.473 530.385,400.806 527.5,400.5C 527.5,400.167 527.5,399.833 527.5,399.5C 527.5,399.167 527.5,398.833 527.5,398.5C 532.152,398.002 536.819,397.669 541.5,397.5 Z"/></g>
<g><path fill="#fdc4c5" d="M 551.5,396.5 C 552.167,396.5 552.833,396.5 553.5,396.5C 547.866,398.938 541.866,399.938 535.5,399.5C 537.5,398.833 539.5,398.167 541.5,397.5C 544.807,396.949 548.14,396.616 551.5,396.5 Z"/></g>
<g><path fill="#d2494c" d="M 527.5,399.5 C 527.5,399.833 527.5,400.167 527.5,400.5C 523.466,400.505 519.466,400.838 515.5,401.5C 519.183,399.75 523.183,399.083 527.5,399.5 Z"/></g>
<g><path fill="#f8aaab" d="M 527.5,400.5 C 522.518,402.739 517.184,403.739 511.5,403.5C 512.833,402.833 514.167,402.167 515.5,401.5C 519.466,400.838 523.466,400.505 527.5,400.5 Z"/></g>
<g><path fill="#db5c5f" d="M 515.5,401.5 C 514.167,402.167 512.833,402.833 511.5,403.5C 510.167,403.5 508.833,403.5 507.5,403.5C 506.167,403.5 504.833,403.5 503.5,403.5C 507.21,401.864 511.21,401.198 515.5,401.5 Z"/></g>
<g><path fill="#d2464b" d="M 503.5,403.5 C 499.461,404.316 495.461,405.316 491.5,406.5C 490.833,406.5 490.167,406.5 489.5,406.5C 486.098,406.342 482.764,406.676 479.5,407.5C 479.5,406.833 479.5,406.167 479.5,405.5C 487.539,405.225 495.539,404.558 503.5,403.5 Z"/></g>
<g><path fill="#f5a2a4" d="M 503.5,403.5 C 504.833,403.5 506.167,403.5 507.5,403.5C 506.5,404.167 505.5,404.833 504.5,405.5C 502.585,405.216 500.919,405.549 499.5,406.5C 496.833,406.5 494.167,406.5 491.5,406.5C 495.461,405.316 499.461,404.316 503.5,403.5 Z"/></g>
<g><path fill="#fecccc" d="M 507.5,403.5 C 508.833,403.5 510.167,403.5 511.5,403.5C 509.485,404.924 507.152,405.59 504.5,405.5C 505.5,404.833 506.5,404.167 507.5,403.5 Z"/></g>
<g><path fill="#dd6266" d="M 855.5,399.5 C 855.833,399.5 856.167,399.5 856.5,399.5C 856.404,405.373 855.737,411.04 854.5,416.5C 854.5,413.5 854.5,410.5 854.5,407.5C 854.194,404.615 854.527,401.948 855.5,399.5 Z"/></g>
<g><path fill="#eb838a" d="M 489.5,406.5 C 486.373,407.581 483.04,408.247 479.5,408.5C 479.5,408.167 479.5,407.833 479.5,407.5C 482.764,406.676 486.098,406.342 489.5,406.5 Z"/></g>
<g><path fill="#cb2627" d="M 860.5,376.5 C 859.584,393.33 857.417,409.997 854,426.5C 850.798,428.126 848.631,430.626 847.5,434C 840.045,438.207 832.045,440.041 823.5,439.5C 823.5,439.167 823.5,438.833 823.5,438.5C 826.482,438.037 829.482,437.704 832.5,437.5C 836.673,437.333 840.34,436 843.5,433.5C 846.139,431.527 848.473,429.194 850.5,426.5C 853.172,424.609 854.172,421.942 853.5,418.5C 853.833,417.833 854.167,417.167 854.5,416.5C 855.737,411.04 856.404,405.373 856.5,399.5C 856.194,396.615 856.527,393.948 857.5,391.5C 858.992,386.6 859.992,381.6 860.5,376.5 Z"/></g>
<g><path fill="#ca171a" d="M 479.5,405.5 C 479.5,406.167 479.5,406.833 479.5,407.5C 472.772,407.797 466.105,408.63 459.5,410C 458.584,410.278 457.918,410.778 457.5,411.5C 452.797,411.437 448.13,411.771 443.5,412.5C 444.091,411.849 444.757,411.182 445.5,410.5C 449.796,409.672 454.129,409.172 458.5,409C 465.115,406.025 472.115,404.859 479.5,405.5 Z"/></g>
<g><path fill="#d9565a" d="M 479.5,407.5 C 479.5,407.833 479.5,408.167 479.5,408.5C 473.463,409.502 467.463,410.502 461.5,411.5C 460.167,411.5 458.833,411.5 457.5,411.5C 457.918,410.778 458.584,410.278 459.5,410C 466.105,408.63 472.772,407.797 479.5,407.5 Z"/></g>
<g><path fill="#f7a9ab" d="M 479.5,408.5 C 473.871,410.938 467.871,411.938 461.5,411.5C 467.463,410.502 473.463,409.502 479.5,408.5 Z"/></g>
<g><path fill="#ffe3e2" d="M 489.5,406.5 C 490.167,406.5 490.833,406.5 491.5,406.5C 494.167,406.5 496.833,406.5 499.5,406.5C 487.157,409.797 474.491,411.797 461.5,412.5C 460.167,412.5 458.833,412.5 457.5,412.5C 457.5,412.167 457.5,411.833 457.5,411.5C 458.833,411.5 460.167,411.5 461.5,411.5C 467.871,411.938 473.871,410.938 479.5,408.5C 483.04,408.247 486.373,407.581 489.5,406.5 Z"/></g>
<g><path fill="#da5b5f" d="M 457.5,411.5 C 457.5,411.833 457.5,412.167 457.5,412.5C 454.615,412.194 451.948,412.527 449.5,413.5C 445.922,413.549 442.589,414.215 439.5,415.5C 439.167,415.5 438.833,415.5 438.5,415.5C 435.833,415.833 433.167,416.167 430.5,416.5C 430.5,416.167 430.5,415.833 430.5,415.5C 434.74,414.181 439.073,413.181 443.5,412.5C 448.13,411.771 452.797,411.437 457.5,411.5 Z"/></g>
<g><path fill="#fdd9d7" d="M 457.5,412.5 C 458.833,412.5 460.167,412.5 461.5,412.5C 461.389,413.117 461.056,413.617 460.5,414C 456.152,414.465 451.819,414.965 447.5,415.5C 448.167,414.833 448.833,414.167 449.5,413.5C 451.948,412.527 454.615,412.194 457.5,412.5 Z"/></g>
<g><path fill="#f9b7b9" d="M 449.5,413.5 C 448.833,414.167 448.167,414.833 447.5,415.5C 444.833,415.5 442.167,415.5 439.5,415.5C 442.589,414.215 445.922,413.549 449.5,413.5 Z"/></g>
<g><path fill="#cd2a29" d="M 417.5,416.5 C 416.833,417.167 416.167,417.833 415.5,418.5C 413.393,419.468 411.059,419.802 408.5,419.5C 407.167,419.5 405.833,419.5 404.5,419.5C 402.167,419.5 399.833,419.5 397.5,419.5C 403.764,416.879 410.431,415.879 417.5,416.5 Z"/></g>
<g><path fill="#cf3a3d" d="M 430.5,415.5 C 430.5,415.833 430.5,416.167 430.5,416.5C 430.167,416.5 429.833,416.5 429.5,416.5C 426.813,416.336 424.146,416.503 421.5,417C 420.584,417.278 419.918,417.778 419.5,418.5C 418.167,418.5 416.833,418.5 415.5,418.5C 416.167,417.833 416.833,417.167 417.5,416.5C 421.768,415.627 426.102,415.294 430.5,415.5 Z"/></g>
<g><path fill="#e98184" d="M 429.5,416.5 C 427.5,417.167 425.5,417.833 423.5,418.5C 422.167,418.5 420.833,418.5 419.5,418.5C 419.918,417.778 420.584,417.278 421.5,417C 424.146,416.503 426.813,416.336 429.5,416.5 Z"/></g>
<g><path fill="#fed2d3" d="M 438.5,415.5 C 438.389,416.117 438.056,416.617 437.5,417C 432.882,417.994 428.215,418.494 423.5,418.5C 425.5,417.833 427.5,417.167 429.5,416.5C 429.833,416.5 430.167,416.5 430.5,416.5C 433.167,416.167 435.833,415.833 438.5,415.5 Z"/></g>
<g><path fill="#f8b8ba" d="M 854.5,407.5 C 854.5,410.5 854.5,413.5 854.5,416.5C 854.167,417.167 853.833,417.833 853.5,418.5C 852.833,419.5 852.167,420.5 851.5,421.5C 852.664,416.822 853.664,412.156 854.5,407.5 Z"/></g>
<g><path fill="#e78285" d="M 404.5,419.5 C 405.833,419.5 407.167,419.5 408.5,419.5C 408.167,420.167 407.833,420.833 407.5,421.5C 404.833,421.5 402.167,421.5 399.5,421.5C 401.167,420.833 402.833,420.167 404.5,419.5 Z"/></g>
<g><path fill="#f9b8bb" d="M 415.5,418.5 C 416.833,418.5 418.167,418.5 419.5,418.5C 420.833,418.5 422.167,418.5 423.5,418.5C 418.338,419.731 413.004,420.731 407.5,421.5C 407.833,420.833 408.167,420.167 408.5,419.5C 411.059,419.802 413.393,419.468 415.5,418.5 Z"/></g>
<g><path fill="#ce393b" d="M 397.5,419.5 C 399.833,419.5 402.167,419.5 404.5,419.5C 402.833,420.167 401.167,420.833 399.5,421.5C 393.963,422.087 388.63,423.087 383.5,424.5C 381.5,424.5 379.5,424.5 377.5,424.5C 377.5,424.167 377.5,423.833 377.5,423.5C 384.167,422.167 390.834,420.833 397.5,419.5 Z"/></g>
<g><path fill="#f2a0a1" d="M 399.5,421.5 C 396.98,422.918 394.313,423.918 391.5,424.5C 388.833,424.5 386.167,424.5 383.5,424.5C 388.63,423.087 393.963,422.087 399.5,421.5 Z"/></g>
<g><path fill="#ffdfdf" d="M 399.5,421.5 C 402.167,421.5 404.833,421.5 407.5,421.5C 402.51,423.622 397.177,424.622 391.5,424.5C 394.313,423.918 396.98,422.918 399.5,421.5 Z"/></g>
<g><path fill="#e77e82" d="M 377.5,424.5 C 379.5,424.5 381.5,424.5 383.5,424.5C 380.833,425.167 378.167,425.833 375.5,426.5C 372.833,426.833 370.167,427.167 367.5,427.5C 367.5,427.167 367.5,426.833 367.5,426.5C 370.627,425.419 373.96,424.753 377.5,424.5 Z"/></g>
<g><path fill="#d65558" d="M 853.5,418.5 C 854.172,421.942 853.172,424.609 850.5,426.5C 851.038,424.883 851.371,423.216 851.5,421.5C 852.167,420.5 852.833,419.5 853.5,418.5 Z"/></g>
<g><path fill="#ffe5e3" d="M 383.5,424.5 C 386.167,424.5 388.833,424.5 391.5,424.5C 390.737,425.268 389.737,425.768 388.5,426C 384.179,426.499 379.846,426.666 375.5,426.5C 378.167,425.833 380.833,425.167 383.5,424.5 Z"/></g>
<g><path fill="#de6868" d="M 367.5,426.5 C 367.5,426.833 367.5,427.167 367.5,427.5C 365.901,427.232 364.568,427.566 363.5,428.5C 362.167,428.5 360.833,428.5 359.5,428.5C 358.167,428.5 356.833,428.5 355.5,428.5C 359.21,426.864 363.21,426.198 367.5,426.5 Z"/></g>
<g><path fill="#fed2d3" d="M 375.5,426.5 C 371.817,428.25 367.817,428.917 363.5,428.5C 364.568,427.566 365.901,427.232 367.5,427.5C 370.167,427.167 372.833,426.833 375.5,426.5 Z"/></g>
<g><path fill="#ed9497" d="M 851.5,421.5 C 851.371,423.216 851.038,424.883 850.5,426.5C 848.473,429.194 846.139,431.527 843.5,433.5C 842.833,433.5 842.167,433.5 841.5,433.5C 845.602,430.732 848.602,427.065 850.5,422.5C 850.5,421.833 850.833,421.5 851.5,421.5 Z"/></g>
<g><path fill="#cd2728" d="M 377.5,423.5 C 377.5,423.833 377.5,424.167 377.5,424.5C 373.96,424.753 370.627,425.419 367.5,426.5C 363.21,426.198 359.21,426.864 355.5,428.5C 351.84,428.159 348.507,428.825 345.5,430.5C 344.508,430.328 343.842,430.662 343.5,431.5C 339.21,431.198 335.21,431.864 331.5,433.5C 330.833,433.5 330.167,433.5 329.5,433.5C 329.277,430.886 330.444,429.219 333,428.5C 336.744,429.626 340.577,429.793 344.5,429C 348.29,427.19 352.29,426.023 356.5,425.5C 356.833,424.5 357.5,423.833 358.5,423.5C 364.787,424.251 371.12,424.251 377.5,423.5 Z"/></g>
<g><path fill="#e07274" d="M 355.5,428.5 C 356.833,428.5 358.167,428.5 359.5,428.5C 357.735,429.461 355.735,429.795 353.5,429.5C 350.833,429.833 348.167,430.167 345.5,430.5C 348.507,428.825 351.84,428.159 355.5,428.5 Z"/></g>
<g><path fill="#f8b5b6" d="M 353.5,429.5 C 353.082,430.222 352.416,430.722 351.5,431C 348.854,431.497 346.187,431.664 343.5,431.5C 343.842,430.662 344.508,430.328 345.5,430.5C 348.167,430.167 350.833,429.833 353.5,429.5 Z"/></g>
<g><path fill="#f4a7ac" d="M 343.5,431.5 C 339.79,433.136 335.79,433.802 331.5,433.5C 335.21,431.864 339.21,431.198 343.5,431.5 Z"/></g>
<g><path fill="#eb9091" d="M 329.5,433.5 C 330.167,433.5 330.833,433.5 331.5,433.5C 331.167,434.5 330.5,435.167 329.5,435.5C 329.167,435.5 328.833,435.5 328.5,435.5C 328.833,434.833 329.167,434.167 329.5,433.5 Z"/></g>
<g><path fill="#e68587" d="M 835.5,435.5 C 834.5,436.167 833.5,436.833 832.5,437.5C 829.482,437.704 826.482,438.037 823.5,438.5C 822.167,438.5 820.833,438.5 819.5,438.5C 824.662,437.269 829.996,436.269 835.5,435.5 Z"/></g>
<g><path fill="#d45053" d="M 841.5,433.5 C 842.167,433.5 842.833,433.5 843.5,433.5C 840.34,436 836.673,437.333 832.5,437.5C 833.5,436.833 834.5,436.167 835.5,435.5C 837.5,434.833 839.5,434.167 841.5,433.5 Z"/></g>
<g><path fill="#d35255" d="M 329.5,433.5 C 329.167,434.167 328.833,434.833 328.5,435.5C 325.527,436.81 323.193,438.81 321.5,441.5C 321.5,441.167 321.5,440.833 321.5,440.5C 323.327,437.246 325.993,434.913 329.5,433.5 Z"/></g>
<g><path fill="#ffe9e8" d="M 850.5,422.5 C 848.602,427.065 845.602,430.732 841.5,433.5C 839.5,434.167 837.5,434.833 835.5,435.5C 829.996,436.269 824.662,437.269 819.5,438.5C 818.167,438.5 816.833,438.5 815.5,438.5C 813.167,438.5 810.833,438.5 808.5,438.5C 808.918,437.778 809.584,437.278 810.5,437C 818.484,435.87 826.484,434.87 834.5,434C 837.626,433.01 840.626,431.844 843.5,430.5C 843.5,429.5 843.5,428.5 843.5,427.5C 846.098,426.24 848.431,424.573 850.5,422.5 Z"/></g>
<g><path fill="#fbbcbc" d="M 328.5,435.5 C 328.833,435.5 329.167,435.5 329.5,435.5C 326.5,437.833 323.833,440.5 321.5,443.5C 321.5,442.833 321.5,442.167 321.5,441.5C 323.193,438.81 325.527,436.81 328.5,435.5 Z"/></g>
<g><path fill="#ec8d90" d="M 813.5,439.5 C 811.5,440.167 809.5,440.833 807.5,441.5C 806.167,441.5 804.833,441.5 803.5,441.5C 803.918,440.778 804.584,440.278 805.5,440C 808.146,439.503 810.813,439.336 813.5,439.5 Z"/></g>
<g><path fill="#d24646" d="M 815.5,438.5 C 816.833,438.5 818.167,438.5 819.5,438.5C 820.833,438.5 822.167,438.5 823.5,438.5C 823.5,438.833 823.5,439.167 823.5,439.5C 818.263,440.817 812.93,441.483 807.5,441.5C 809.5,440.833 811.5,440.167 813.5,439.5C 814.492,439.672 815.158,439.338 815.5,438.5 Z"/></g>
<g><path fill="#fac6c8" d="M 808.5,438.5 C 810.833,438.5 813.167,438.5 815.5,438.5C 815.158,439.338 814.492,439.672 813.5,439.5C 810.813,439.336 808.146,439.503 805.5,440C 804.584,440.278 803.918,440.778 803.5,441.5C 797.963,442.087 792.63,443.087 787.5,444.5C 784.193,445.051 780.86,445.384 777.5,445.5C 779.96,444.109 782.626,442.942 785.5,442C 793.274,441.225 800.941,440.058 808.5,438.5 Z"/></g>
<g><path fill="#de6e74" d="M 321.5,441.5 C 321.5,442.167 321.5,442.833 321.5,443.5C 320.833,443.833 320.167,444.167 319.5,444.5C 319.427,442.973 320.094,441.973 321.5,441.5 Z"/></g>
<g><path fill="#d85257" d="M 803.5,441.5 C 804.833,441.5 806.167,441.5 807.5,441.5C 801.089,443.344 794.422,444.344 787.5,444.5C 792.63,443.087 797.963,442.087 803.5,441.5 Z"/></g>
<g><path fill="#cb2a2c" d="M 321.5,440.5 C 321.5,440.833 321.5,441.167 321.5,441.5C 320.094,441.973 319.427,442.973 319.5,444.5C 319.5,445.167 319.5,445.833 319.5,446.5C 317.787,447.635 317.12,449.302 317.5,451.5C 316.068,455.399 315.068,459.399 314.5,463.5C 314.334,459.486 314.501,455.486 315,451.5C 316.205,447.868 317.372,444.202 318.5,440.5C 319.5,440.5 320.5,440.5 321.5,440.5 Z"/></g>
<g><path fill="#f9b3b4" d="M 321.5,443.5 C 321.573,445.027 320.906,446.027 319.5,446.5C 319.5,445.833 319.5,445.167 319.5,444.5C 320.167,444.167 320.833,443.833 321.5,443.5 Z"/></g>
<g><path fill="#ee989a" d="M 775.5,445.5 C 773.095,446.768 770.428,447.435 767.5,447.5C 767.5,447.167 767.5,446.833 767.5,446.5C 769.948,445.527 772.615,445.194 775.5,445.5 Z"/></g>
<g><path fill="#ce3c3c" d="M 787.5,444.5 C 781.196,447.071 774.53,448.404 767.5,448.5C 767.5,448.167 767.5,447.833 767.5,447.5C 770.428,447.435 773.095,446.768 775.5,445.5C 776.167,445.5 776.833,445.5 777.5,445.5C 780.86,445.384 784.193,445.051 787.5,444.5 Z"/></g>
<g><path fill="#f6b1b2" d="M 767.5,446.5 C 767.5,446.833 767.5,447.167 767.5,447.5C 763.183,447.083 759.183,447.75 755.5,449.5C 750.404,449.044 745.738,450.044 741.5,452.5C 741.5,535.5 741.5,618.5 741.5,701.5C 741.167,701.5 740.833,701.5 740.5,701.5C 740.5,698.833 740.5,696.167 740.5,693.5C 740.5,612.833 740.5,532.167 740.5,451.5C 742.277,450.4 744.277,449.566 746.5,449C 753.409,447.419 760.409,446.586 767.5,446.5 Z"/></g>
<g><path fill="#e78a8c" d="M 767.5,447.5 C 767.5,447.833 767.5,448.167 767.5,448.5C 763.466,448.505 759.466,448.838 755.5,449.5C 759.183,447.75 763.183,447.083 767.5,447.5 Z"/></g>
<g><path fill="#e37478" d="M 755.5,449.5 C 750.95,450.491 746.283,451.491 741.5,452.5C 745.738,450.044 750.404,449.044 755.5,449.5 Z"/></g>
<g><path fill="#fbc3c3" d="M 319.5,446.5 C 318.495,455.303 317.495,463.97 316.5,472.5C 316.5,470.167 316.5,467.833 316.5,465.5C 316.437,460.797 316.771,456.13 317.5,451.5C 317.12,449.302 317.787,447.635 319.5,446.5 Z"/></g>
<g><path fill="#d95d5e" d="M 317.5,451.5 C 316.771,456.13 316.437,460.797 316.5,465.5C 315.408,469.816 314.408,474.149 313.5,478.5C 313.372,474.119 313.705,469.785 314.5,465.5C 314.5,464.833 314.5,464.167 314.5,463.5C 315.068,459.399 316.068,455.399 317.5,451.5 Z"/></g>
<g><path fill="#e5787b" d="M 653.5,467.5 C 651.585,467.216 649.919,467.549 648.5,468.5C 648.167,468.5 647.833,468.5 647.5,468.5C 646.5,468.5 645.5,468.5 644.5,468.5C 644.5,468.167 644.5,467.833 644.5,467.5C 647.638,466.319 650.638,466.319 653.5,467.5 Z"/></g>
<g><path fill="#ffe4e4" d="M 655.5,467.5 C 656.167,551.668 656.833,636.001 657.5,720.5C 658.299,724.501 658.965,728.501 659.5,732.5C 658.833,732.167 658.167,731.833 657.5,731.5C 657.5,731.167 657.5,730.833 657.5,730.5C 657.664,727.813 657.497,725.146 657,722.5C 656.617,721.944 656.117,721.611 655.5,721.5C 655.5,720.833 655.5,720.167 655.5,719.5C 655.5,635.5 655.5,551.5 655.5,467.5 Z"/></g>
<g><path fill="#f0a0a3" d="M 644.5,467.5 C 644.5,467.833 644.5,468.167 644.5,468.5C 641.14,468.616 637.807,468.949 634.5,469.5C 637.507,467.825 640.84,467.159 644.5,467.5 Z"/></g>
<g><path fill="#ce4547" d="M 644.5,468.5 C 645.5,468.5 646.5,468.5 647.5,468.5C 647.5,468.833 647.5,469.167 647.5,469.5C 641.266,470.89 634.933,471.557 628.5,471.5C 627.5,471.5 626.5,471.5 625.5,471.5C 625.5,471.167 625.5,470.833 625.5,470.5C 628.609,470.736 631.609,470.403 634.5,469.5C 637.807,468.949 641.14,468.616 644.5,468.5 Z"/></g>
<g><path fill="#fededf" d="M 645.5,465.5 C 645.167,466.167 644.833,466.833 644.5,467.5C 640.84,467.159 637.507,467.825 634.5,469.5C 631.609,470.403 628.609,470.736 625.5,470.5C 623.708,470.366 622.042,470.699 620.5,471.5C 617.5,471.5 614.5,471.5 611.5,471.5C 622.701,469.503 634.034,467.503 645.5,465.5 Z"/></g>
<g><path fill="#c9252a" d="M 314.5,465.5 C 313.705,469.785 313.372,474.119 313.5,478.5C 313.5,480.167 313.5,481.833 313.5,483.5C 312.778,483.918 312.278,484.584 312,485.5C 311.183,491.016 311.349,496.35 312.5,501.5C 312.833,502.833 313.167,504.167 313.5,505.5C 312.25,505.423 311.417,504.756 311,503.5C 310.833,500.167 310.667,496.833 310.5,493.5C 311.329,484.844 312.162,476.177 313,467.5C 313.278,466.584 313.778,465.918 314.5,465.5 Z"/></g>
<g><path fill="#e97f7e" d="M 625.5,470.5 C 625.5,470.833 625.5,471.167 625.5,471.5C 623.958,472.301 622.292,472.634 620.5,472.5C 620.5,472.167 620.5,471.833 620.5,471.5C 622.042,470.699 623.708,470.366 625.5,470.5 Z"/></g>
<g><path fill="#f5adac" d="M 316.5,465.5 C 316.5,467.833 316.5,470.167 316.5,472.5C 315.631,474.717 315.298,477.05 315.5,479.5C 314.833,481.833 314.167,484.167 313.5,486.5C 313.5,485.5 313.5,484.5 313.5,483.5C 313.5,481.833 313.5,480.167 313.5,478.5C 314.408,474.149 315.408,469.816 316.5,465.5 Z"/></g>
<g><path fill="#f7a8ad" d="M 611.5,471.5 C 614.5,471.5 617.5,471.5 620.5,471.5C 620.5,471.833 620.5,472.167 620.5,472.5C 618.585,472.216 616.919,472.549 615.5,473.5C 612.833,473.833 610.167,474.167 607.5,474.5C 607.5,474.167 607.5,473.833 607.5,473.5C 608.671,472.655 610.005,471.989 611.5,471.5 Z"/></g>
<g><path fill="#d23736" d="M 625.5,471.5 C 626.5,471.5 627.5,471.5 628.5,471.5C 628.5,471.833 628.5,472.167 628.5,472.5C 624.265,473.436 619.931,473.769 615.5,473.5C 616.919,472.549 618.585,472.216 620.5,472.5C 622.292,472.634 623.958,472.301 625.5,471.5 Z"/></g>
<g><path fill="#f8b9bb" d="M 607.5,473.5 C 607.5,473.833 607.5,474.167 607.5,474.5C 603.511,474.116 599.845,474.783 596.5,476.5C 594.585,476.216 592.919,476.549 591.5,477.5C 590.833,477.5 590.167,477.5 589.5,477.5C 588.167,477.5 586.833,477.5 585.5,477.5C 584.833,477.5 584.167,477.5 583.5,477.5C 583.5,477.167 583.5,476.833 583.5,476.5C 591.535,475.468 599.535,474.468 607.5,473.5 Z"/></g>
<g><path fill="#df6f72" d="M 607.5,474.5 C 606.791,475.404 605.791,475.737 604.5,475.5C 601.833,475.833 599.167,476.167 596.5,476.5C 599.845,474.783 603.511,474.116 607.5,474.5 Z"/></g>
<g><path fill="#fde6e8" d="M 583.5,476.5 C 583.5,476.833 583.5,477.167 583.5,477.5C 581.143,477.337 578.81,477.503 576.5,478C 575.944,478.383 575.611,478.883 575.5,479.5C 573.833,479.5 572.167,479.5 570.5,479.5C 571.801,478.36 572.968,477.027 574,475.5C 577.057,476.451 580.223,476.784 583.5,476.5 Z"/></g>
<g><path fill="#d4464a" d="M 604.5,475.5 C 603.737,476.268 602.737,476.768 601.5,477C 598.183,477.498 594.85,477.665 591.5,477.5C 592.919,476.549 594.585,476.216 596.5,476.5C 599.167,476.167 601.833,475.833 604.5,475.5 Z"/></g>
<g><path fill="#f29d9e" d="M 583.5,477.5 C 584.167,477.5 584.833,477.5 585.5,477.5C 582.373,478.581 579.04,479.247 575.5,479.5C 575.611,478.883 575.944,478.383 576.5,478C 578.81,477.503 581.143,477.337 583.5,477.5 Z"/></g>
<g><path fill="#ce3c3c" d="M 585.5,477.5 C 586.833,477.5 588.167,477.5 589.5,477.5C 586.548,479.41 583.214,480.41 579.5,480.5C 578.167,480.5 576.833,480.5 575.5,480.5C 575.5,480.167 575.5,479.833 575.5,479.5C 579.04,479.247 582.373,478.581 585.5,477.5 Z"/></g>
<g><path fill="#f19ea0" d="M 570.5,479.5 C 572.167,479.5 573.833,479.5 575.5,479.5C 575.5,479.833 575.5,480.167 575.5,480.5C 570.077,480.524 564.743,481.19 559.5,482.5C 559.5,482.167 559.5,481.833 559.5,481.5C 562.909,480.097 566.575,479.43 570.5,479.5 Z"/></g>
<g><path fill="#fac3c2" d="M 559.5,481.5 C 559.5,481.833 559.5,482.167 559.5,482.5C 557.585,482.216 555.919,482.549 554.5,483.5C 553.167,483.5 551.833,483.5 550.5,483.5C 549.167,483.5 547.833,483.5 546.5,483.5C 546.918,482.778 547.584,482.278 548.5,482C 552.152,481.501 555.818,481.335 559.5,481.5 Z"/></g>
<g><path fill="#cd3030" d="M 575.5,480.5 C 576.833,480.5 578.167,480.5 579.5,480.5C 570.564,482.883 561.231,484.549 551.5,485.5C 552.5,484.833 553.5,484.167 554.5,483.5C 555.919,482.549 557.585,482.216 559.5,482.5C 564.743,481.19 570.077,480.524 575.5,480.5 Z"/></g>
<g><path fill="#e5767b" d="M 546.5,483.5 C 547.833,483.5 549.167,483.5 550.5,483.5C 549.5,484.167 548.5,484.833 547.5,485.5C 544.721,485.279 542.054,485.612 539.5,486.5C 538.5,486.5 537.5,486.5 536.5,486.5C 537.5,485.833 538.5,485.167 539.5,484.5C 541.95,484.702 544.283,484.369 546.5,483.5 Z"/></g>
<g><path fill="#d6484e" d="M 550.5,483.5 C 551.833,483.5 553.167,483.5 554.5,483.5C 553.5,484.167 552.5,484.833 551.5,485.5C 550.167,485.5 548.833,485.5 547.5,485.5C 548.5,484.833 549.5,484.167 550.5,483.5 Z"/></g>
<g><path fill="#e1777b" d="M 527.5,487.5 C 526.5,488.167 525.5,488.833 524.5,489.5C 523.833,489.5 523.167,489.5 522.5,489.5C 523.635,487.787 525.302,487.12 527.5,487.5 Z"/></g>
<g><path fill="#d24a49" d="M 536.5,486.5 C 537.5,486.5 538.5,486.5 539.5,486.5C 534.777,488.225 529.777,489.225 524.5,489.5C 525.5,488.833 526.5,488.167 527.5,487.5C 530.287,486.523 533.287,486.19 536.5,486.5 Z"/></g>
<g><path fill="#d1353e" d="M 648.5,468.5 C 649.919,467.549 651.585,467.216 653.5,467.5C 653.5,549.167 653.5,630.833 653.5,712.5C 653.167,712.5 652.833,712.5 652.5,712.5C 652.5,631.167 652.5,549.833 652.5,468.5C 651.167,468.5 649.833,468.5 648.5,468.5 Z"/></g>
<g><path fill="#f8abad" d="M 313.5,487.5 C 313.334,492.179 313.501,496.845 314,501.5C 314.232,502.737 314.732,503.737 315.5,504.5C 315.5,505.167 315.5,505.833 315.5,506.5C 314.833,506.167 314.167,505.833 313.5,505.5C 313.167,504.167 312.833,502.833 312.5,501.5C 312.181,496.637 312.514,491.97 313.5,487.5 Z"/></g>
<g><path fill="#ffe9eb" d="M 315.5,479.5 C 314.276,487.839 314.276,496.172 315.5,504.5C 314.732,503.737 314.232,502.737 314,501.5C 313.501,496.845 313.334,492.179 313.5,487.5C 313.5,487.167 313.5,486.833 313.5,486.5C 314.167,484.167 314.833,481.833 315.5,479.5 Z"/></g>
<g><path fill="#db6366" d="M 313.5,483.5 C 313.5,484.5 313.5,485.5 313.5,486.5C 313.5,486.833 313.5,487.167 313.5,487.5C 312.514,491.97 312.181,496.637 312.5,501.5C 311.349,496.35 311.183,491.016 312,485.5C 312.278,484.584 312.778,483.918 313.5,483.5 Z"/></g>
<g><path fill="#d31417" d="M 647.5,469.5 C 648.833,469.5 650.167,469.5 651.5,469.5C 651.167,550.668 651.501,631.668 652.5,712.5C 652.833,712.5 653.167,712.5 653.5,712.5C 653.45,717.552 653.95,722.552 655,727.5C 655.278,728.416 655.778,729.082 656.5,729.5C 656.5,729.833 656.5,730.167 656.5,730.5C 656.5,731.5 656.5,732.5 656.5,733.5C 654.868,733.175 653.868,732.175 653.5,730.5C 652.538,725.557 651.205,720.724 649.5,716C 650.133,706.855 650.466,697.688 650.5,688.5C 650.048,655.305 649.381,622.138 648.5,589C 649.235,577.354 649.902,565.687 650.5,554C 648.903,532.694 647.903,511.361 647.5,490C 647.911,488.856 648.244,487.689 648.5,486.5C 647.837,483.194 647.337,479.861 647,476.5C 642.582,475.401 642.415,473.901 646.5,472C 644.833,471.333 643.167,471.333 641.5,472C 642.888,472.889 642.722,473.389 641,473.5C 636.889,472.596 632.722,472.263 628.5,472.5C 628.5,472.167 628.5,471.833 628.5,471.5C 634.933,471.557 641.266,470.89 647.5,469.5 Z"/></g>
<g><path fill="#de6b6c" d="M 424.5,504.5 C 425.5,504.5 426.5,504.5 427.5,504.5C 426.167,505.167 424.833,505.833 423.5,506.5C 420.833,506.5 418.167,506.5 415.5,506.5C 415.5,506.167 415.5,505.833 415.5,505.5C 418.43,504.701 421.43,504.368 424.5,504.5 Z"/></g>
<g><path fill="#e77472" d="M 313.5,505.5 C 314.167,505.833 314.833,506.167 315.5,506.5C 316.11,507.391 316.443,508.391 316.5,509.5C 315.5,508.833 314.5,508.167 313.5,507.5C 313.5,506.833 313.5,506.167 313.5,505.5 Z"/></g>
<g><path fill="#f7abad" d="M 415.5,505.5 C 415.5,505.833 415.5,506.167 415.5,506.5C 414.432,507.434 413.099,507.768 411.5,507.5C 407.466,507.505 403.466,507.838 399.5,508.5C 404.547,506.694 409.88,505.694 415.5,505.5 Z"/></g>
<g><path fill="#db595c" d="M 411.5,507.5 C 409.095,508.768 406.428,509.435 403.5,509.5C 402.167,509.5 400.833,509.5 399.5,509.5C 399.5,509.167 399.5,508.833 399.5,508.5C 403.466,507.838 407.466,507.505 411.5,507.5 Z"/></g>
<g><path fill="#f9b8bb" d="M 399.5,508.5 C 399.5,508.833 399.5,509.167 399.5,509.5C 398.167,509.5 396.833,509.5 395.5,509.5C 392.833,509.833 390.167,510.167 387.5,510.5C 391.183,508.75 395.183,508.083 399.5,508.5 Z"/></g>
<g><path fill="#ea8284" d="M 316.5,509.5 C 318.262,510.262 319.262,511.596 319.5,513.5C 317.738,512.738 316.738,511.404 316.5,509.5 Z"/></g>
<g><path fill="#fff1f5" d="M 437.5,503.5 C 438.333,618.333 438.833,733.333 439,848.5C 439.363,851.544 439.863,854.544 440.5,857.5C 440.167,857.5 439.833,857.5 439.5,857.5C 438.326,856.486 437.66,855.153 437.5,853.5C 437.5,851.5 437.5,849.5 437.5,847.5C 437.5,732.833 437.5,618.167 437.5,503.5 Z"/></g>
<g><path fill="#ed9192" d="M 395.5,509.5 C 391.601,510.932 387.601,511.932 383.5,512.5C 380.833,512.833 378.167,513.167 375.5,513.5C 373.833,513.5 372.167,513.5 370.5,513.5C 375.927,511.863 381.593,510.863 387.5,510.5C 390.167,510.167 392.833,509.833 395.5,509.5 Z"/></g>
<g><path fill="#d03c3d" d="M 395.5,509.5 C 396.833,509.5 398.167,509.5 399.5,509.5C 400.833,509.5 402.167,509.5 403.5,509.5C 397.15,511.704 390.484,512.704 383.5,512.5C 387.601,511.932 391.601,510.932 395.5,509.5 Z"/></g>
<g><path fill="#c52526" d="M 313.5,507.5 C 314.5,508.167 315.5,508.833 316.5,509.5C 316.738,511.404 317.738,512.738 319.5,513.5C 320.262,515.262 321.596,516.262 323.5,516.5C 323.833,517.167 324.167,517.833 324.5,518.5C 321.738,517.62 319.071,516.454 316.5,515C 315.723,512.372 314.723,509.872 313.5,507.5 Z"/></g>
<g><path fill="#e47f7f" d="M 319.5,513.5 C 320.167,513.5 320.833,513.5 321.5,513.5C 322.167,514.5 322.833,515.5 323.5,516.5C 321.596,516.262 320.262,515.262 319.5,513.5 Z"/></g>
<g><path fill="#ffecec" d="M 363.5,513.5 C 362.167,514.167 360.833,514.833 359.5,515.5C 358.167,515.5 356.833,515.5 355.5,515.5C 351.96,515.753 348.627,516.419 345.5,517.5C 344.833,517.5 344.167,517.5 343.5,517.5C 342.5,517.5 341.5,517.5 340.5,517.5C 347.673,514.14 355.34,512.807 363.5,513.5 Z"/></g>
<g><path fill="#e68483" d="M 363.5,513.5 C 365.833,513.5 368.167,513.5 370.5,513.5C 372.167,513.5 373.833,513.5 375.5,513.5C 375.5,513.833 375.5,514.167 375.5,514.5C 371.466,514.505 367.466,514.838 363.5,515.5C 362.167,515.5 360.833,515.5 359.5,515.5C 360.833,514.833 362.167,514.167 363.5,513.5 Z"/></g>
<g><path fill="#da5c5f" d="M 355.5,515.5 C 356.833,515.5 358.167,515.5 359.5,515.5C 360.833,515.5 362.167,515.5 363.5,515.5C 361.095,516.768 358.428,517.435 355.5,517.5C 355.5,516.833 355.5,516.167 355.5,515.5 Z"/></g>
<g><path fill="#fed8d7" d="M 321.5,513.5 C 327.095,516.354 333.095,517.687 339.5,517.5C 336.375,518.479 333.042,518.813 329.5,518.5C 327.579,517.637 325.579,516.971 323.5,516.5C 322.833,515.5 322.167,514.5 321.5,513.5 Z"/></g>
<g><path fill="#f1999b" d="M 355.5,515.5 C 355.5,516.167 355.5,516.833 355.5,517.5C 354.167,517.5 352.833,517.5 351.5,517.5C 349.5,517.5 347.5,517.5 345.5,517.5C 348.627,516.419 351.96,515.753 355.5,515.5 Z"/></g>
<g><path fill="#db6b6a" d="M 323.5,516.5 C 325.579,516.971 327.579,517.637 329.5,518.5C 329.5,518.833 329.5,519.167 329.5,519.5C 327.883,518.962 326.216,518.629 324.5,518.5C 324.167,517.833 323.833,517.167 323.5,516.5 Z"/></g>
<g><path fill="#f6aaab" d="M 339.5,517.5 C 339.833,517.5 340.167,517.5 340.5,517.5C 341.5,517.5 342.5,517.5 343.5,517.5C 342.5,518.167 341.5,518.833 340.5,519.5C 336.833,519.5 333.167,519.5 329.5,519.5C 329.5,519.167 329.5,518.833 329.5,518.5C 333.042,518.813 336.375,518.479 339.5,517.5 Z"/></g>
<g><path fill="#dd6a69" d="M 343.5,517.5 C 344.167,517.5 344.833,517.5 345.5,517.5C 347.5,517.5 349.5,517.5 351.5,517.5C 348.026,518.525 344.36,519.192 340.5,519.5C 341.5,518.833 342.5,518.167 343.5,517.5 Z"/></g>
<g><path fill="#cc2324" d="M 375.5,514.5 C 362.796,519.482 349.463,522.149 335.5,522.5C 332.833,522.167 330.167,521.833 327.5,521.5C 326.23,520.712 325.23,519.712 324.5,518.5C 326.216,518.629 327.883,518.962 329.5,519.5C 333.167,519.5 336.833,519.5 340.5,519.5C 344.36,519.192 348.026,518.525 351.5,517.5C 352.833,517.5 354.167,517.5 355.5,517.5C 358.428,517.435 361.095,516.768 363.5,515.5C 367.466,514.838 371.466,514.505 375.5,514.5 Z"/></g>
<g><path fill="#d01923" d="M 647.5,469.5 C 647.5,469.167 647.5,468.833 647.5,468.5C 647.833,468.5 648.167,468.5 648.5,468.5C 649.833,468.5 651.167,468.5 652.5,468.5C 652.5,549.833 652.5,631.167 652.5,712.5C 651.501,631.668 651.167,550.668 651.5,469.5C 650.167,469.5 648.833,469.5 647.5,469.5 Z"/></g>
<g><path fill="#ce383c" d="M 767.5,448.5 C 760.023,450.624 752.356,452.291 744.5,453.5C 743.167,494.328 742.5,535.495 742.5,577C 742.667,618.167 742.833,659.333 743,700.5C 743.383,701.056 743.883,701.389 744.5,701.5C 744.5,704.833 744.5,708.167 744.5,711.5C 744.167,711.5 743.833,711.5 743.5,711.5C 743.149,708.097 742.482,704.763 741.5,701.5C 741.5,618.5 741.5,535.5 741.5,452.5C 746.283,451.491 750.95,450.491 755.5,449.5C 759.466,448.838 763.466,448.505 767.5,448.5 Z"/></g>
<g><path fill="#d11015" d="M 744.5,695.5 C 743.167,615.167 743.167,534.833 744.5,454.5C 747.957,454.242 751.29,453.742 754.5,453C 752.91,454.046 751.41,455.213 750,456.5C 748.644,455.62 747.144,455.286 745.5,455.5C 745.046,535.483 744.712,615.483 744.5,695.5 Z"/></g>
<g><path fill="#fccfd0" d="M 740.5,451.5 C 740.5,532.167 740.5,612.833 740.5,693.5C 739.883,693.389 739.383,693.056 739,692.5C 738.833,652.333 738.667,612.167 738.5,572C 738.5,531.494 739.167,491.328 740.5,451.5 Z"/></g>
<g><path fill="#f2979a" d="M 435.5,503.5 C 436.167,618.167 436.833,732.833 437.5,847.5C 437.5,849.5 437.5,851.5 437.5,853.5C 437.167,853.5 436.833,853.5 436.5,853.5C 435.508,736.855 435.174,620.188 435.5,503.5 Z"/></g>
<g><path fill="#fff6f4" d="M 525.5,485.5 C 523.909,486.219 522.409,487.219 521,488.5C 520.5,599.499 520.333,710.499 520.5,821.5C 519.962,823.117 519.629,824.784 519.5,826.5C 518.833,826.833 518.167,827.167 517.5,827.5C 517.838,825.146 518.338,822.813 519,820.5C 519.831,710.46 519.664,600.46 518.5,490.5C 519.473,486.852 521.807,485.186 525.5,485.5 Z"/></g>
<g><path fill="#c80f13" d="M 433.5,849.5 C 432.825,735.98 432.159,622.313 431.5,508.5C 426.821,508.334 422.155,508.501 417.5,509C 403.77,512.714 389.77,514.548 375.5,514.5C 375.5,514.167 375.5,513.833 375.5,513.5C 378.167,513.167 380.833,512.833 383.5,512.5C 390.484,512.704 397.15,511.704 403.5,509.5C 406.428,509.435 409.095,508.768 411.5,507.5C 413.099,507.768 414.432,507.434 415.5,506.5C 418.167,506.5 420.833,506.5 423.5,506.5C 426.579,506.74 429.579,506.407 432.5,505.5C 433.5,620.165 433.833,734.831 433.5,849.5 Z"/></g>
<g><path fill="#f4aeb0" d="M 645.5,465.5 C 649.329,464.931 652.663,465.598 655.5,467.5C 655.5,551.5 655.5,635.5 655.5,719.5C 654.833,635.5 654.167,551.5 653.5,467.5C 650.638,466.319 647.638,466.319 644.5,467.5C 644.833,466.833 645.167,466.167 645.5,465.5 Z"/></g>
<g><path fill="#c81519" d="M 744.5,453.5 C 744.5,453.833 744.5,454.167 744.5,454.5C 743.167,534.833 743.167,615.167 744.5,695.5C 744.5,697.5 744.5,699.5 744.5,701.5C 743.883,701.389 743.383,701.056 743,700.5C 742.833,659.333 742.667,618.167 742.5,577C 742.5,535.495 743.167,494.328 744.5,453.5 Z"/></g>
<g><path fill="#d64b4f" d="M 428.5,504.5 C 430.607,503.532 432.941,503.198 435.5,503.5C 435.174,620.188 435.508,736.855 436.5,853.5C 435.326,852.486 434.66,851.153 434.5,849.5C 434.5,734.5 434.5,619.5 434.5,504.5C 432.5,504.5 430.5,504.5 428.5,504.5 Z"/></g>
<g><path fill="#fecfd3" d="M 437.5,503.5 C 437.5,618.167 437.5,732.833 437.5,847.5C 436.833,732.833 436.167,618.167 435.5,503.5C 432.941,503.198 430.607,503.532 428.5,504.5C 428.167,504.5 427.833,504.5 427.5,504.5C 426.5,504.5 425.5,504.5 424.5,504.5C 426.848,503.048 429.514,502.382 432.5,502.5C 434.369,502.507 436.036,502.84 437.5,503.5 Z"/></g>
<g><path fill="#cf2d30" d="M 547.5,485.5 C 548.833,485.5 550.167,485.5 551.5,485.5C 544.751,487.455 537.751,488.955 530.5,490C 528.481,490.45 526.648,491.283 525,492.5C 524.667,601.167 524.333,709.833 524,818.5C 524.064,822.679 522.898,826.345 520.5,829.5C 520.5,828.833 520.5,828.167 520.5,827.5C 521.15,825.565 521.483,823.565 521.5,821.5C 522.499,711.001 522.833,600.335 522.5,489.5C 523.167,489.5 523.833,489.5 524.5,489.5C 529.777,489.225 534.777,488.225 539.5,486.5C 542.054,485.612 544.721,485.279 547.5,485.5 Z"/></g>
<g><path fill="#f9bcbb" d="M 539.5,484.5 C 538.5,485.167 537.5,485.833 536.5,486.5C 533.287,486.19 530.287,486.523 527.5,487.5C 525.302,487.12 523.635,487.787 522.5,489.5C 522.833,600.335 522.499,711.001 521.5,821.5C 521.167,821.5 520.833,821.5 520.5,821.5C 520.333,710.499 520.5,599.499 521,488.5C 522.409,487.219 523.909,486.219 525.5,485.5C 530.203,485.563 534.87,485.229 539.5,484.5 Z"/></g>
<g><path fill="#fed9d8" d="M 740.5,701.5 C 740.833,701.5 741.167,701.5 741.5,701.5C 742.482,704.763 743.149,708.097 743.5,711.5C 743.5,712.833 743.5,714.167 743.5,715.5C 741.044,711.262 740.044,706.596 740.5,701.5 Z"/></g>
<g><path fill="#d14b4e" d="M 744.5,711.5 C 746.213,712.635 746.88,714.302 746.5,716.5C 745.463,715.07 744.796,713.403 744.5,711.5 Z"/></g>
<g><path fill="#f4abab" d="M 743.5,711.5 C 743.833,711.5 744.167,711.5 744.5,711.5C 744.796,713.403 745.463,715.07 746.5,716.5C 746.5,717.5 746.5,718.5 746.5,719.5C 745.833,718.833 745.167,718.167 744.5,717.5C 744.672,716.508 744.338,715.842 743.5,715.5C 743.5,714.167 743.5,712.833 743.5,711.5 Z"/></g>
<g><path fill="#d7585a" d="M 653.5,467.5 C 654.167,551.5 654.833,635.5 655.5,719.5C 655.5,720.167 655.5,720.833 655.5,721.5C 655.833,724.167 656.167,726.833 656.5,729.5C 655.778,729.082 655.278,728.416 655,727.5C 653.95,722.552 653.45,717.552 653.5,712.5C 653.5,630.833 653.5,549.167 653.5,467.5 Z"/></g>
<g><path fill="#e6767b" d="M 746.5,719.5 C 747.906,719.973 748.573,720.973 748.5,722.5C 747.833,722.167 747.167,721.833 746.5,721.5C 746.5,720.833 746.5,720.167 746.5,719.5 Z"/></g>
<g><path fill="#fedfde" d="M 744.5,717.5 C 745.167,718.167 745.833,718.833 746.5,719.5C 746.5,720.167 746.5,720.833 746.5,721.5C 746.427,723.027 747.094,724.027 748.5,724.5C 749.537,725.93 750.204,727.597 750.5,729.5C 746.42,726.621 744.42,722.621 744.5,717.5 Z"/></g>
<g><path fill="#f4acab" d="M 746.5,721.5 C 747.167,721.833 747.833,722.167 748.5,722.5C 748.5,723.167 748.5,723.833 748.5,724.5C 747.094,724.027 746.427,723.027 746.5,721.5 Z"/></g>
<g><path fill="#d4575b" d="M 748.5,722.5 C 750.926,725.013 752.592,728.013 753.5,731.5C 753.5,731.833 753.5,732.167 753.5,732.5C 752.833,732.167 752.167,731.833 751.5,731.5C 751.672,730.508 751.338,729.842 750.5,729.5C 750.204,727.597 749.537,725.93 748.5,724.5C 748.5,723.833 748.5,723.167 748.5,722.5 Z"/></g>
<g><path fill="#f19fa2" d="M 655.5,721.5 C 656.117,721.611 656.617,721.944 657,722.5C 657.497,725.146 657.664,727.813 657.5,730.5C 657.167,730.5 656.833,730.5 656.5,730.5C 656.5,730.167 656.5,729.833 656.5,729.5C 656.167,726.833 655.833,724.167 655.5,721.5 Z"/></g>
<g><path fill="#c62f31" d="M 753.5,731.5 C 755.408,732.486 756.408,734.152 756.5,736.5C 755.833,736.167 755.167,735.833 754.5,735.5C 754.443,734.391 754.11,733.391 753.5,732.5C 753.5,732.167 753.5,731.833 753.5,731.5 Z"/></g>
<g><path fill="#d24649" d="M 656.5,730.5 C 656.833,730.5 657.167,730.5 657.5,730.5C 657.5,730.833 657.5,731.167 657.5,731.5C 657.796,733.403 658.463,735.07 659.5,736.5C 659.5,737.167 659.5,737.833 659.5,738.5C 659.5,739.167 659.5,739.833 659.5,740.5C 658.323,738.321 657.323,735.987 656.5,733.5C 656.5,732.5 656.5,731.5 656.5,730.5 Z"/></g>
<g><path fill="#f1999f" d="M 657.5,731.5 C 658.167,731.833 658.833,732.167 659.5,732.5C 659.5,733.833 659.5,735.167 659.5,736.5C 658.463,735.07 657.796,733.403 657.5,731.5 Z"/></g>
<g><path fill="#f5a7a8" d="M 751.5,731.5 C 752.167,731.833 752.833,732.167 753.5,732.5C 754.11,733.391 754.443,734.391 754.5,735.5C 754.5,736.167 754.5,736.833 754.5,737.5C 753.508,735.544 752.508,733.544 751.5,731.5 Z"/></g>
<g><path fill="#df6b72" d="M 754.5,735.5 C 755.167,735.833 755.833,736.167 756.5,736.5C 756.5,737.167 756.5,737.833 756.5,738.5C 755.833,738.167 755.167,737.833 754.5,737.5C 754.5,736.833 754.5,736.167 754.5,735.5 Z"/></g>
<g><path fill="#fcc4c6" d="M 659.5,732.5 C 660.407,734.657 661.073,736.99 661.5,739.5C 660.833,739.167 660.167,738.833 659.5,738.5C 659.5,737.833 659.5,737.167 659.5,736.5C 659.5,735.167 659.5,733.833 659.5,732.5 Z"/></g>
<g><path fill="#f3a4a8" d="M 754.5,737.5 C 755.167,737.833 755.833,738.167 756.5,738.5C 757.11,739.391 757.443,740.391 757.5,741.5C 755.738,740.738 754.738,739.404 754.5,737.5 Z"/></g>
<g><path fill="#df787a" d="M 659.5,738.5 C 660.167,738.833 660.833,739.167 661.5,739.5C 661.5,740.167 661.5,740.833 661.5,741.5C 661.5,742.167 661.5,742.833 661.5,743.5C 660.833,742.5 660.167,741.5 659.5,740.5C 659.5,739.833 659.5,739.167 659.5,738.5 Z"/></g>
<g><path fill="#c92727" d="M 756.5,736.5 C 760.697,740.143 763.031,744.809 763.5,750.5C 762.833,750.167 762.167,749.833 761.5,749.5C 761.088,746.198 759.755,743.531 757.5,741.5C 757.443,740.391 757.11,739.391 756.5,738.5C 756.5,737.833 756.5,737.167 756.5,736.5 Z"/></g>
<g><path fill="#fabec1" d="M 661.5,741.5 C 662.906,741.973 663.573,742.973 663.5,744.5C 662.833,744.167 662.167,743.833 661.5,743.5C 661.5,742.833 661.5,742.167 661.5,741.5 Z"/></g>
<g><path fill="#e07c81" d="M 661.5,743.5 C 662.167,743.833 662.833,744.167 663.5,744.5C 663.5,745.167 663.5,745.833 663.5,746.5C 662.094,746.027 661.427,745.027 661.5,743.5 Z"/></g>
<g><path fill="#e1787a" d="M 757.5,741.5 C 759.755,743.531 761.088,746.198 761.5,749.5C 759.613,747.211 758.279,744.545 757.5,741.5 Z"/></g>
<g><path fill="#f59fa1" d="M 663.5,746.5 C 664.906,746.973 665.573,747.973 665.5,749.5C 664.833,749.167 664.167,748.833 663.5,748.5C 663.5,747.833 663.5,747.167 663.5,746.5 Z"/></g>
<g><path fill="#d75b5e" d="M 663.5,748.5 C 664.167,748.833 664.833,749.167 665.5,749.5C 665.5,750.167 665.5,750.833 665.5,751.5C 664.094,751.027 663.427,750.027 663.5,748.5 Z"/></g>
<g><path fill="#fdcdd1" d="M 665.5,749.5 C 668.32,750.465 669.653,752.465 669.5,755.5C 669.167,755.5 668.833,755.5 668.5,755.5C 668.167,755.5 667.833,755.5 667.5,755.5C 667.34,753.847 666.674,752.514 665.5,751.5C 665.5,750.833 665.5,750.167 665.5,749.5 Z"/></g>
<g><path fill="#c72124" d="M 764.5,751.5 C 766.864,754.523 769.031,757.856 771,761.5C 772.341,764.022 773.174,766.689 773.5,769.5C 773.167,769.5 772.833,769.5 772.5,769.5C 769.827,763.489 767.161,757.489 764.5,751.5 Z"/></g>
<g><path fill="#fcbcc2" d="M 761.5,751.5 C 762.906,751.973 763.573,752.973 763.5,754.5C 762.094,754.027 761.427,753.027 761.5,751.5 Z"/></g>
<g><path fill="#d1454b" d="M 665.5,751.5 C 666.674,752.514 667.34,753.847 667.5,755.5C 665.824,754.817 665.157,753.483 665.5,751.5 Z"/></g>
<g><path fill="#e4777a" d="M 761.5,749.5 C 762.167,749.833 762.833,750.167 763.5,750.5C 763.5,751.167 763.833,751.5 764.5,751.5C 767.161,757.489 769.827,763.489 772.5,769.5C 771.5,768.833 770.5,768.167 769.5,767.5C 769.34,765.847 768.674,764.514 767.5,763.5C 766.721,760.455 765.387,757.789 763.5,755.5C 763.5,755.167 763.5,754.833 763.5,754.5C 763.573,752.973 762.906,751.973 761.5,751.5C 761.5,750.833 761.5,750.167 761.5,749.5 Z"/></g>
<g><path fill="#f2a6a7" d="M 668.5,755.5 C 668.833,755.5 669.167,755.5 669.5,755.5C 673.633,762.101 676.967,769.101 679.5,776.5C 678.833,776.167 678.167,775.833 677.5,775.5C 676.341,771.849 674.674,768.515 672.5,765.5C 671.613,761.96 670.279,758.627 668.5,755.5 Z"/></g>
<g><path fill="#ce4244" d="M 667.5,755.5 C 667.833,755.5 668.167,755.5 668.5,755.5C 670.279,758.627 671.613,761.96 672.5,765.5C 671.833,765.167 671.167,764.833 670.5,764.5C 668.647,761.792 667.647,758.792 667.5,755.5 Z"/></g>
<g><path fill="#ffdfdd" d="M 763.5,755.5 C 765.387,757.789 766.721,760.455 767.5,763.5C 764.942,761.566 763.609,758.899 763.5,755.5 Z"/></g>
<g><path fill="#c92324" d="M 670.5,764.5 C 671.167,764.833 671.833,765.167 672.5,765.5C 674.674,768.515 676.341,771.849 677.5,775.5C 673.599,772.965 671.265,769.298 670.5,764.5 Z"/></g>
<g><path fill="#d14848" d="M 772.5,769.5 C 772.833,769.5 773.167,769.5 773.5,769.5C 775.075,771.114 775.741,773.114 775.5,775.5C 773.992,773.819 772.992,771.819 772.5,769.5 Z"/></g>
<g><path fill="#f1a3a5" d="M 679.5,776.5 C 680.906,776.973 681.573,777.973 681.5,779.5C 680.833,779.167 680.167,778.833 679.5,778.5C 679.5,777.833 679.5,777.167 679.5,776.5 Z"/></g>
<g><path fill="#d24f50" d="M 776.5,777.5 C 777.391,778.11 778.391,778.443 779.5,778.5C 779.5,780.167 779.5,781.833 779.5,783.5C 777.992,781.819 776.992,779.819 776.5,777.5 Z"/></g>
<g><path fill="#c82026" d="M 779.5,778.5 C 780.602,781.807 782.435,784.807 785,787.5C 785.561,790.279 786.394,792.946 787.5,795.5C 784.769,793.054 782.769,790.054 781.5,786.5C 781.573,784.973 780.906,783.973 779.5,783.5C 779.5,781.833 779.5,780.167 779.5,778.5 Z"/></g>
<g><path fill="#fedddb" d="M 769.5,767.5 C 770.5,768.167 771.5,768.833 772.5,769.5C 772.992,771.819 773.992,773.819 775.5,775.5C 775.328,776.492 775.662,777.158 776.5,777.5C 776.992,779.819 777.992,781.819 779.5,783.5C 779.5,784.167 779.5,784.833 779.5,785.5C 780.883,787.978 781.883,790.645 782.5,793.5C 780,789.832 777.5,786.166 775,782.5C 773.67,777.2 771.837,772.2 769.5,767.5 Z"/></g>
<g><path fill="#e26f76" d="M 679.5,778.5 C 680.167,778.833 680.833,779.167 681.5,779.5C 682.338,779.842 682.672,780.508 682.5,781.5C 682.5,782.167 682.5,782.833 682.5,783.5C 681.11,782.101 680.11,780.434 679.5,778.5 Z"/></g>
<g><path fill="#dd6f71" d="M 682.5,783.5 C 683.906,783.973 684.573,784.973 684.5,786.5C 683.094,786.027 682.427,785.027 682.5,783.5 Z"/></g>
<g><path fill="#dc5f63" d="M 779.5,783.5 C 780.906,783.973 781.573,784.973 781.5,786.5C 780.833,786.167 780.167,785.833 779.5,785.5C 779.5,784.833 779.5,784.167 779.5,783.5 Z"/></g>
<g><path fill="#fcd3d2" d="M 682.5,781.5 C 687.878,786.243 691.212,792.243 692.5,799.5C 691.833,799.167 691.167,798.833 690.5,798.5C 690.026,795.371 688.692,792.705 686.5,790.5C 686.34,788.847 685.674,787.514 684.5,786.5C 684.573,784.973 683.906,783.973 682.5,783.5C 682.5,782.833 682.5,782.167 682.5,781.5 Z"/></g>
<g><path fill="#d35455" d="M 684.5,786.5 C 685.674,787.514 686.34,788.847 686.5,790.5C 684.824,789.817 684.157,788.483 684.5,786.5 Z"/></g>
<g><path fill="#d65654" d="M 686.5,790.5 C 688.692,792.705 690.026,795.371 690.5,798.5C 689.833,797.833 689.167,797.167 688.5,796.5C 686.926,794.898 686.259,792.898 686.5,790.5 Z"/></g>
<g><path fill="#de6c70" d="M 690.5,798.5 C 691.167,798.833 691.833,799.167 692.5,799.5C 692.5,800.167 692.5,800.833 692.5,801.5C 691.094,801.027 690.427,800.027 690.5,798.5 Z"/></g>
<g><path fill="#ec8c8f" d="M 779.5,785.5 C 780.167,785.833 780.833,786.167 781.5,786.5C 782.769,790.054 784.769,793.054 787.5,795.5C 787.4,798.108 788.067,800.442 789.5,802.5C 789.5,803.167 789.5,803.833 789.5,804.5C 787.429,800.697 785.096,797.03 782.5,793.5C 781.883,790.645 780.883,787.978 779.5,785.5 Z"/></g>
<g><path fill="#f0999b" d="M 692.5,801.5 C 694.446,802.035 695.446,803.368 695.5,805.5C 694.833,805.5 694.167,805.5 693.5,805.5C 693.167,804.167 692.833,802.833 692.5,801.5 Z"/></g>
<g><path fill="#c72327" d="M 688.5,796.5 C 689.167,797.167 689.833,797.833 690.5,798.5C 690.427,800.027 691.094,801.027 692.5,801.5C 692.833,802.833 693.167,804.167 693.5,805.5C 690.069,803.652 688.403,800.652 688.5,796.5 Z"/></g>
<g><path fill="#d45354" d="M 789.5,802.5 C 790.906,802.973 791.573,803.973 791.5,805.5C 790.833,805.167 790.167,804.833 789.5,804.5C 789.5,803.833 789.5,803.167 789.5,802.5 Z"/></g>
<g><path fill="#ea9495" d="M 789.5,804.5 C 790.167,804.833 790.833,805.167 791.5,805.5C 791.5,805.833 791.5,806.167 791.5,806.5C 791.5,806.833 791.5,807.167 791.5,807.5C 790.833,807.167 790.167,806.833 789.5,806.5C 789.5,805.833 789.5,805.167 789.5,804.5 Z"/></g>
<g><path fill="#e68284" d="M 695.5,805.5 C 697.071,807.635 698.404,809.968 699.5,812.5C 700.11,813.391 700.443,814.391 700.5,815.5C 697.29,813.082 695.624,809.748 695.5,805.5 Z"/></g>
<g><path fill="#db6566" d="M 791.5,806.5 C 793.904,809.631 796.071,812.964 798,816.5C 799.136,818.743 799.97,821.076 800.5,823.5C 799.833,823.167 799.167,822.833 798.5,822.5C 798.5,821.833 798.167,821.5 797.5,821.5C 797.975,818.687 796.975,816.687 794.5,815.5C 794.672,814.508 794.338,813.842 793.5,813.5C 793.029,811.421 792.363,809.421 791.5,807.5C 791.5,807.167 791.5,806.833 791.5,806.5 Z"/></g>
<g><path fill="#fdcfd2" d="M 789.5,806.5 C 790.167,806.833 790.833,807.167 791.5,807.5C 792.363,809.421 793.029,811.421 793.5,813.5C 791.801,811.434 790.468,809.1 789.5,806.5 Z"/></g>
<g><path fill="#c61d20" d="M 427.5,504.5 C 427.833,504.5 428.167,504.5 428.5,504.5C 430.5,504.5 432.5,504.5 434.5,504.5C 434.5,619.5 434.5,734.5 434.5,849.5C 434.167,849.5 433.833,849.5 433.5,849.5C 433.833,734.831 433.5,620.165 432.5,505.5C 429.579,506.407 426.579,506.74 423.5,506.5C 424.833,505.833 426.167,505.167 427.5,504.5 Z"/></g>
<g><path fill="#dd6b6e" d="M 700.5,815.5 C 702.405,818.304 704.071,821.304 705.5,824.5C 705.5,824.833 705.5,825.167 705.5,825.5C 705.167,825.5 704.833,825.5 704.5,825.5C 702.085,822.66 700.752,819.327 700.5,815.5 Z"/></g>
<g><path fill="#ffe3e3" d="M 699.5,812.5 C 700.376,812.369 701.043,812.702 701.5,813.5C 703.569,817.539 705.569,821.539 707.5,825.5C 706.833,825.167 706.167,824.833 705.5,824.5C 704.071,821.304 702.405,818.304 700.5,815.5C 700.443,814.391 700.11,813.391 699.5,812.5 Z"/></g>
<g><path fill="#fdcdc9" d="M 794.5,815.5 C 796.975,816.687 797.975,818.687 797.5,821.5C 795.755,819.967 794.755,817.967 794.5,815.5 Z"/></g>
<g><path fill="#e77a7b" d="M 520.5,821.5 C 520.833,821.5 521.167,821.5 521.5,821.5C 521.483,823.565 521.15,825.565 520.5,827.5C 520.167,827.5 519.833,827.5 519.5,827.5C 519.5,827.167 519.5,826.833 519.5,826.5C 519.629,824.784 519.962,823.117 520.5,821.5 Z"/></g>
<g><path fill="#ed9899" d="M 798.5,822.5 C 799.167,822.833 799.833,823.167 800.5,823.5C 801.338,823.842 801.672,824.508 801.5,825.5C 799.5,825.5 798.5,824.5 798.5,822.5 Z"/></g>
<g><path fill="#fdd9da" d="M 797.5,821.5 C 798.167,821.5 798.5,821.833 798.5,822.5C 798.5,824.5 799.5,825.5 801.5,825.5C 801.833,826.833 802.167,828.167 802.5,829.5C 799.231,827.886 797.564,825.219 797.5,821.5 Z"/></g>
<g><path fill="#d14346" d="M 801.5,825.5 C 803.913,826.68 804.913,828.68 804.5,831.5C 803.833,830.833 803.167,830.167 802.5,829.5C 802.167,828.167 801.833,826.833 801.5,825.5 Z"/></g>
<g><path fill="#faadac" d="M 519.5,826.5 C 519.5,826.833 519.5,827.167 519.5,827.5C 519.167,828.5 518.5,829.167 517.5,829.5C 517.5,828.833 517.5,828.167 517.5,827.5C 518.167,827.167 518.833,826.833 519.5,826.5 Z"/></g>
<g><path fill="#ee999c" d="M 705.5,824.5 C 706.167,824.833 706.833,825.167 707.5,825.5C 707.229,827.38 707.896,828.713 709.5,829.5C 709.629,831.216 709.962,832.883 710.5,834.5C 708.469,831.777 706.802,828.777 705.5,825.5C 705.5,825.167 705.5,824.833 705.5,824.5 Z"/></g>
<g><path fill="#ca3c41" d="M 704.5,825.5 C 704.833,825.5 705.167,825.5 705.5,825.5C 706.802,828.777 708.469,831.777 710.5,834.5C 710.5,835.167 710.5,835.833 710.5,836.5C 709.542,836.047 708.708,835.381 708,834.5C 706.346,831.707 705.179,828.707 704.5,825.5 Z"/></g>
<g><path fill="#ffdfe1" d="M 709.5,829.5 C 711.008,831.181 712.008,833.181 712.5,835.5C 711.833,835.167 711.167,834.833 710.5,834.5C 709.962,832.883 709.629,831.216 709.5,829.5 Z"/></g>
<g><path fill="#ea8486" d="M 804.5,833.5 C 806.262,834.262 807.262,835.596 807.5,837.5C 805.738,836.738 804.738,835.404 804.5,833.5 Z"/></g>
<g><path fill="#ffe8e9" d="M 511.5,836.5 C 508.897,838.621 506.564,840.954 504.5,843.5C 501.669,844.079 499.336,845.412 497.5,847.5C 497.167,847.5 496.833,847.5 496.5,847.5C 496.586,846.504 496.252,845.671 495.5,845C 497.778,844.014 500.111,843.18 502.5,842.5C 504.758,839.218 507.758,837.218 511.5,836.5 Z"/></g>
<g><path fill="#ee9a99" d="M 517.5,829.5 C 515.289,836.048 510.955,840.714 504.5,843.5C 506.564,840.954 508.897,838.621 511.5,836.5C 513.5,834.167 515.5,831.833 517.5,829.5 Z"/></g>
<g><path fill="#f5a1a0" d="M 710.5,834.5 C 711.167,834.833 711.833,835.167 712.5,835.5C 712.5,836.167 712.5,836.833 712.5,837.5C 711.833,837.167 711.167,836.833 710.5,836.5C 710.5,835.833 710.5,835.167 710.5,834.5 Z"/></g>
<g><path fill="#fed5d3" d="M 802.5,829.5 C 803.167,830.167 803.833,830.833 804.5,831.5C 804.5,832.167 804.5,832.833 804.5,833.5C 804.738,835.404 805.738,836.738 807.5,837.5C 808.501,840.172 809.501,842.838 810.5,845.5C 810.665,848.85 810.498,852.183 810,855.5C 809.722,856.416 809.222,857.082 808.5,857.5C 809.44,853.537 809.607,849.537 809,845.5C 805.51,840.687 803.343,835.353 802.5,829.5 Z"/></g>
<g><path fill="#ca1d20" d="M 804.5,831.5 C 805.239,831.369 805.906,831.536 806.5,832C 807.376,833.586 808.376,835.086 809.5,836.5C 810.425,837.641 811.259,837.641 812,836.5C 813.544,842.962 813.711,849.295 812.5,855.5C 812.665,851.818 812.499,848.152 812,844.5C 810.943,841.728 809.443,839.395 807.5,837.5C 807.262,835.596 806.262,834.262 804.5,833.5C 804.5,832.833 804.5,832.167 804.5,831.5 Z"/></g>
<g><path fill="#d45353" d="M 710.5,836.5 C 711.167,836.833 711.833,837.167 712.5,837.5C 712.5,838.167 712.5,838.833 712.5,839.5C 711.094,839.027 710.427,838.027 710.5,836.5 Z"/></g>
<g><path fill="#ca3739" d="M 519.5,827.5 C 519.833,827.5 520.167,827.5 520.5,827.5C 520.5,828.167 520.5,828.833 520.5,829.5C 516.807,836.858 511.14,842.191 503.5,845.5C 503.833,844.833 504.167,844.167 504.5,843.5C 510.955,840.714 515.289,836.048 517.5,829.5C 518.5,829.167 519.167,828.5 519.5,827.5 Z"/></g>
<g><path fill="#cc4144" d="M 712.5,839.5 C 713.5,840.833 714.5,842.167 715.5,843.5C 715.5,844.167 715.5,844.833 715.5,845.5C 713.031,844.393 712.031,842.393 712.5,839.5 Z"/></g>
<g><path fill="#f4a8a7" d="M 715.5,843.5 C 716.906,843.973 717.573,844.973 717.5,846.5C 716.833,846.167 716.167,845.833 715.5,845.5C 715.5,844.833 715.5,844.167 715.5,843.5 Z"/></g>
<g><path fill="#ea9393" d="M 504.5,843.5 C 504.167,844.167 503.833,844.833 503.5,845.5C 501.847,845.66 500.514,846.326 499.5,847.5C 498.833,847.5 498.167,847.5 497.5,847.5C 499.336,845.412 501.669,844.079 504.5,843.5 Z"/></g>
<g><path fill="#fcd4d7" d="M 712.5,837.5 C 715.613,840.846 718.446,844.513 721,848.5C 721.497,850.81 721.663,853.143 721.5,855.5C 720.662,855.158 720.328,854.492 720.5,853.5C 720.443,852.391 720.11,851.391 719.5,850.5C 719.573,848.973 718.906,847.973 717.5,847.5C 717.5,847.167 717.5,846.833 717.5,846.5C 717.573,844.973 716.906,843.973 715.5,843.5C 714.5,842.167 713.5,840.833 712.5,839.5C 712.5,838.833 712.5,838.167 712.5,837.5 Z"/></g>
<g><path fill="#da6263" d="M 715.5,845.5 C 716.167,845.833 716.833,846.167 717.5,846.5C 717.5,846.833 717.5,847.167 717.5,847.5C 717.5,847.833 717.5,848.167 717.5,848.5C 716.094,848.027 715.427,847.027 715.5,845.5 Z"/></g>
<g><path fill="#f4a2a1" d="M 496.5,847.5 C 496.833,847.5 497.167,847.5 497.5,847.5C 496.473,849.194 495.139,850.527 493.5,851.5C 492.508,851.328 491.842,851.662 491.5,852.5C 490.391,852.557 489.391,852.89 488.5,853.5C 490.702,851.046 493.368,849.046 496.5,847.5 Z"/></g>
<g><path fill="#ef9f9e" d="M 717.5,847.5 C 718.906,847.973 719.573,848.973 719.5,850.5C 718.833,850.167 718.167,849.833 717.5,849.5C 717.5,849.167 717.5,848.833 717.5,848.5C 717.5,848.167 717.5,847.833 717.5,847.5 Z"/></g>
<g><path fill="#ef9394" d="M 810.5,845.5 C 811.479,848.625 811.813,851.958 811.5,855.5C 811.167,856.833 810.833,858.167 810.5,859.5C 809.5,860.167 808.5,860.833 807.5,861.5C 807.833,860.167 808.167,858.833 808.5,857.5C 809.222,857.082 809.722,856.416 810,855.5C 810.498,852.183 810.665,848.85 810.5,845.5 Z"/></g>
<g><path fill="#c84041" d="M 497.5,847.5 C 498.167,847.5 498.833,847.5 499.5,847.5C 498.292,850.044 496.292,851.378 493.5,851.5C 495.139,850.527 496.473,849.194 497.5,847.5 Z"/></g>
<g><path fill="#d8676a" d="M 717.5,849.5 C 718.167,849.833 718.833,850.167 719.5,850.5C 720.11,851.391 720.443,852.391 720.5,853.5C 718.738,852.738 717.738,851.404 717.5,849.5 Z"/></g>
<g><path fill="#d1474c" d="M 807.5,837.5 C 809.443,839.395 810.943,841.728 812,844.5C 812.499,848.152 812.665,851.818 812.5,855.5C 812.167,855.5 811.833,855.5 811.5,855.5C 811.813,851.958 811.479,848.625 810.5,845.5C 809.501,842.838 808.501,840.172 807.5,837.5 Z"/></g>
<g><path fill="#ea9895" d="M 488.5,853.5 C 487.599,855.727 485.933,856.727 483.5,856.5C 484.899,855.11 486.566,854.11 488.5,853.5 Z"/></g>
<g><path fill="#cd1d20" d="M 503.5,845.5 C 499.625,850.111 495.292,854.278 490.5,858C 485.301,859.266 480.634,861.6 476.5,865C 474.846,865.608 473.179,866.108 471.5,866.5C 472.167,865.5 472.833,864.5 473.5,863.5C 473.833,863.5 474.167,863.5 474.5,863.5C 476.062,863.267 477.395,862.6 478.5,861.5C 481.478,860.011 484.478,858.511 487.5,857C 489.041,855.629 490.375,854.129 491.5,852.5C 491.842,851.662 492.508,851.328 493.5,851.5C 496.292,851.378 498.292,850.044 499.5,847.5C 500.514,846.326 501.847,845.66 503.5,845.5 Z"/></g>
<g><path fill="#fcbcbe" d="M 483.5,856.5 C 482.564,857.974 481.23,858.974 479.5,859.5C 479.5,859.167 479.5,858.833 479.5,858.5C 480.514,857.326 481.847,856.66 483.5,856.5 Z"/></g>
<g><path fill="#ef9497" d="M 439.5,857.5 C 439.833,857.5 440.167,857.5 440.5,857.5C 441.11,858.391 441.443,859.391 441.5,860.5C 440.094,860.027 439.427,859.027 439.5,857.5 Z"/></g>
<g><path fill="#d12e31" d="M 436.5,853.5 C 436.833,853.5 437.167,853.5 437.5,853.5C 437.66,855.153 438.326,856.486 439.5,857.5C 439.427,859.027 440.094,860.027 441.5,860.5C 441.5,861.167 441.5,861.833 441.5,862.5C 436.903,861.403 435.237,858.403 436.5,853.5 Z"/></g>
<g><path fill="#d24d50" d="M 491.5,852.5 C 490.375,854.129 489.041,855.629 487.5,857C 484.478,858.511 481.478,860.011 478.5,861.5C 478.833,860.833 479.167,860.167 479.5,859.5C 481.23,858.974 482.564,857.974 483.5,856.5C 485.933,856.727 487.599,855.727 488.5,853.5C 489.391,852.89 490.391,852.557 491.5,852.5 Z"/></g>
<g><path fill="#ee9896" d="M 721.5,855.5 C 723.369,857.034 724.702,859.034 725.5,861.5C 724.5,860.833 723.5,860.167 722.5,859.5C 722.167,858.167 721.833,856.833 721.5,855.5 Z"/></g>
<g><path fill="#e07978" d="M 441.5,860.5 C 442.833,861.5 444.167,862.5 445.5,863.5C 445.833,864.167 446.167,864.833 446.5,865.5C 444.589,864.925 442.922,863.925 441.5,862.5C 441.5,861.833 441.5,861.167 441.5,860.5 Z"/></g>
<g><path fill="#fee3e2" d="M 479.5,858.5 C 479.5,858.833 479.5,859.167 479.5,859.5C 477.251,860.08 475.585,861.413 474.5,863.5C 474.167,863.5 473.833,863.5 473.5,863.5C 471.938,863.733 470.605,864.4 469.5,865.5C 469.5,864.5 469.5,863.5 469.5,862.5C 470.873,862.657 472.207,862.49 473.5,862C 474.45,859.09 476.45,857.923 479.5,858.5 Z"/></g>
<g><path fill="#e27b7c" d="M 479.5,859.5 C 479.167,860.167 478.833,860.833 478.5,861.5C 477.395,862.6 476.062,863.267 474.5,863.5C 475.585,861.413 477.251,860.08 479.5,859.5 Z"/></g>
<g><path fill="#f4a6a7" d="M 725.5,862.5 C 727.411,863.075 729.078,864.075 730.5,865.5C 730.5,865.833 730.5,866.167 730.5,866.5C 730.167,866.5 729.833,866.5 729.5,866.5C 727.833,865.5 726.5,864.167 725.5,862.5 Z"/></g>
<g><path fill="#c42a2f" d="M 441.5,862.5 C 442.922,863.925 444.589,864.925 446.5,865.5C 447.605,866.6 448.938,867.267 450.5,867.5C 450.5,867.833 450.5,868.167 450.5,868.5C 448.099,867.951 445.765,867.118 443.5,866C 442.177,865.184 441.511,864.017 441.5,862.5 Z"/></g>
<g><path fill="#f8b3b5" d="M 445.5,863.5 C 448.1,864.468 450.434,865.801 452.5,867.5C 451.833,867.5 451.167,867.5 450.5,867.5C 448.938,867.267 447.605,866.6 446.5,865.5C 446.167,864.833 445.833,864.167 445.5,863.5 Z"/></g>
<g><path fill="#ec8b8e" d="M 473.5,863.5 C 472.833,864.5 472.167,865.5 471.5,866.5C 470.833,866.5 470.167,866.5 469.5,866.5C 469.5,866.167 469.5,865.833 469.5,865.5C 470.605,864.4 471.938,863.733 473.5,863.5 Z"/></g>
<g><path fill="#fdcaca" d="M 469.5,865.5 C 469.5,865.833 469.5,866.167 469.5,866.5C 467.565,867.15 465.565,867.483 463.5,867.5C 464.99,865.72 466.99,865.054 469.5,865.5 Z"/></g>
<g><path fill="#cb3133" d="M 722.5,859.5 C 723.5,860.167 724.5,860.833 725.5,861.5C 725.5,861.833 725.5,862.167 725.5,862.5C 726.5,864.167 727.833,865.5 729.5,866.5C 729.5,866.833 729.5,867.167 729.5,867.5C 725.07,866.733 722.737,864.067 722.5,859.5 Z"/></g>
<g><path fill="#d44644" d="M 469.5,866.5 C 470.167,866.5 470.833,866.5 471.5,866.5C 470.817,868.176 469.483,868.843 467.5,868.5C 466.167,868.5 464.833,868.5 463.5,868.5C 463.5,868.167 463.5,867.833 463.5,867.5C 465.565,867.483 467.565,867.15 469.5,866.5 Z"/></g>
<g><path fill="#da6a68" d="M 450.5,868.5 C 450.5,868.167 450.5,867.833 450.5,867.5C 451.167,867.5 451.833,867.5 452.5,867.5C 455.962,868.482 459.629,868.815 463.5,868.5C 460.375,869.479 457.042,869.813 453.5,869.5C 452.391,869.443 451.391,869.11 450.5,868.5 Z"/></g>
<g><path fill="#fed3d6" d="M 730.5,866.5 C 730.5,866.167 730.5,865.833 730.5,865.5C 732.372,866.511 734.372,867.345 736.5,868C 756.164,868.5 775.831,868.667 795.5,868.5C 795.5,869.167 795.5,869.833 795.5,870.5C 775.831,870.667 756.164,870.5 736.5,870C 734.422,868.923 732.422,867.757 730.5,866.5 Z"/></g>
<g><path fill="#df6e6c" d="M 810.5,859.5 C 807.827,864.173 804.161,867.839 799.5,870.5C 798.167,870.5 796.833,870.5 795.5,870.5C 795.5,869.833 795.5,869.167 795.5,868.5C 800.485,867.847 804.485,865.514 807.5,861.5C 808.5,860.833 809.5,860.167 810.5,859.5 Z"/></g>
<g><path fill="#c72a2a" d="M 463.5,868.5 C 464.833,868.5 466.167,868.5 467.5,868.5C 467.389,869.117 467.056,869.617 466.5,870C 461.98,870.814 457.646,870.647 453.5,869.5C 457.042,869.813 460.375,869.479 463.5,868.5 Z"/></g>
<g><path fill="#da6366" d="M 729.5,867.5 C 729.5,867.167 729.5,866.833 729.5,866.5C 729.833,866.5 730.167,866.5 730.5,866.5C 732.422,867.757 734.422,868.923 736.5,870C 756.164,870.5 775.831,870.667 795.5,870.5C 775.264,871.825 754.931,871.825 734.5,870.5C 732.78,869.692 731.113,868.692 729.5,867.5 Z"/></g>
<g><path fill="#c62426" d="M 734.5,870.5 C 754.931,871.825 775.264,871.825 795.5,870.5C 796.833,870.5 798.167,870.5 799.5,870.5C 799.389,871.117 799.056,871.617 798.5,872C 787.833,872.167 777.167,872.333 766.5,872.5C 755.478,872.499 744.812,871.832 734.5,870.5 Z"/></g>
</svg>
